<svg width="233" height="99" viewBox="0 0 233 99" fill="none" xmlns="http://www.w3.org/2000/svg">
<g clip-path="url(#clip0_2038_78)">
<path d="M40.8878 69.8385C40.9712 69.8295 41.0525 69.8067 41.1283 69.7709C41.2044 69.7358 41.2856 69.7129 41.3688 69.7032C41.5349 69.636 41.708 69.5881 41.885 69.5604C42.0621 69.5365 42.2355 69.4902 42.4011 69.4226C43.7664 68.9615 45.0813 68.363 46.3257 67.6363C46.9453 67.2866 47.5323 66.8821 48.0795 66.4274C48.6065 65.9856 49.123 65.5455 49.6291 65.1071C50.5822 64.1584 51.4359 63.115 52.177 61.9929C52.8188 60.976 53.3717 59.9056 53.8293 58.7935C54.0558 58.2663 54.2397 57.7217 54.3793 57.1651C54.5183 56.6176 54.6298 56.0827 54.725 55.5641C54.7688 55.2982 54.7918 55.0293 54.7939 54.7599V53.9644C54.7939 53.7352 54.7826 53.4972 54.7601 53.2454C54.7375 52.9936 54.7012 52.7606 54.6574 52.5339C54.4965 51.5531 54.2189 50.5951 53.8306 49.6802C53.6911 49.4634 53.5655 49.2379 53.4548 49.005C53.3367 48.7648 53.1862 48.5418 53.0076 48.3424C52.8698 48.1319 52.7082 47.914 52.5253 47.6847C52.3424 47.4555 52.1582 47.2413 51.9741 47.0346C51.8655 46.9401 51.7622 46.8398 51.6647 46.7339C51.5569 46.6154 51.4298 46.5158 51.2889 46.4395C51.1803 46.3437 51.077 46.2421 50.9795 46.1351C50.8716 46.0173 50.7445 45.9186 50.6037 45.8433C50.369 45.6384 50.1176 45.4536 49.8521 45.2908C49.5765 45.1217 49.3009 44.9639 49.0253 44.8173C47.8287 44.1532 46.5575 43.6335 45.2384 43.269C43.8193 42.9012 42.3651 42.6854 40.9003 42.6251C40.1187 42.6418 39.3608 42.6664 38.6267 42.699C37.8926 42.7316 37.1356 42.8013 36.3556 42.9082C36.1916 42.9385 36.0229 42.9317 35.8618 42.8883C35.7008 42.845 35.5515 42.7662 35.4248 42.6577C35.3006 42.5489 35.2023 42.4137 35.1373 42.2619C35.0722 42.1102 35.0421 41.9458 35.049 41.7808C35.0468 41.4171 35.1809 41.0659 35.4248 40.7962C35.6612 40.517 35.993 40.3357 36.3556 40.2876C37.0429 40.1924 37.7315 40.0629 38.4213 39.8993C39.1111 39.7356 39.7996 39.5594 40.487 39.3706C41.8242 38.9202 43.1346 38.3937 44.4116 37.7935C45.049 37.4755 45.6695 37.1247 46.2706 36.7425C46.8656 36.3667 47.4644 35.9433 48.0607 35.4898C49.1743 34.659 50.211 33.7299 51.1586 32.7138C52.0654 31.7669 52.873 30.7297 53.5688 29.6184C54.2536 28.6217 54.8524 27.5686 55.3589 26.4704C55.8172 25.4402 56.1856 24.3723 56.46 23.2786C56.5518 22.7591 56.6437 22.2635 56.7356 21.7916C56.8296 21.3023 56.8986 20.8086 56.9423 20.3122V18.8629L56.7356 17.4398C56.6528 16.9748 56.527 16.5185 56.3598 16.0769C56.1894 15.6442 55.994 15.2218 55.7748 14.8117C55.3325 13.9292 54.7513 13.1235 54.0536 12.4253C53.6853 12.1071 53.3195 11.7764 52.9525 11.4369C52.5509 11.073 52.1126 10.7518 51.6446 10.4786C49.6974 9.26089 47.5542 8.38911 45.3098 7.90184C45.0277 7.79895 44.74 7.71238 44.448 7.64253C44.1498 7.56821 43.8404 7.50682 43.5197 7.45839C43.199 7.41204 42.8934 7.36068 42.589 7.31057C42.2846 7.26046 41.9802 7.21161 41.6607 7.16401C40.4214 7.01452 39.1128 6.9189 37.7348 6.87714L35.7743 6.87088H33.7437L31.6768 7.01744C30.9886 7.06838 30.3001 7.14104 29.6111 7.23541C26.8336 7.57823 24.0918 8.16509 21.4173 8.98917C18.6814 9.77518 16.0811 10.9731 13.7057 12.5418C13.068 12.9028 12.458 13.3106 11.8806 13.7619C11.3052 14.2087 10.7427 14.6542 10.1932 15.0985C9.95817 15.3673 9.70718 15.6216 9.44158 15.8602C9.17313 16.0982 8.9196 16.3526 8.68245 16.6218C8.41522 16.8826 8.16421 17.1596 7.93084 17.4511C7.70034 17.7354 7.4711 18.0098 7.24061 18.2703C6.82126 18.8453 6.43118 19.4411 6.07185 20.0554C5.70217 20.6852 5.38017 21.3418 5.10853 22.0196C4.55186 23.2678 4.20318 24.5986 4.07632 25.9593C4.07466 26.1116 4.06252 26.2635 4.03999 26.4141C4.01674 26.5872 4.00543 26.7617 4.00617 26.9364V27.3523C4.05552 27.5052 4.07922 27.6652 4.07632 27.8258C4.07327 28.1578 4.09589 28.4895 4.14396 28.818C4.18742 29.1018 4.2566 29.381 4.35066 29.6523C4.59667 30.818 4.98982 31.9478 5.52067 33.0145C5.79112 33.5191 6.0906 34.0076 6.41759 34.4776C6.73281 34.9356 7.07762 35.3724 7.44981 35.7854C7.77197 36.2522 8.167 36.6641 8.61982 37.0055C8.84781 37.2047 9.06703 37.3814 9.27372 37.5367C9.48041 37.692 9.69713 37.8474 9.92637 37.9977C10.138 38.1856 10.369 38.3507 10.6153 38.49C10.8458 38.6152 11.0738 38.7606 11.3056 38.9121C11.5753 39.0118 11.8395 39.1255 12.0973 39.2529C12.3478 39.3806 12.5887 39.4971 12.8201 39.6024C13.0957 39.7009 13.3708 39.7894 13.6456 39.8679C13.9204 39.9464 14.1964 40.0345 14.4736 40.1322C14.5854 40.1715 14.7002 40.2017 14.8169 40.2224C14.9559 40.2488 15.0937 40.2776 15.2315 40.3064C15.3617 40.3619 15.5021 40.3892 15.6436 40.3865L16.1272 40.4592C16.6258 40.5524 17.0963 40.759 17.5023 41.0631C17.9082 41.3672 18.2388 41.7607 18.4685 42.213C18.7187 42.6822 18.8665 43.1991 18.9022 43.7297C18.9378 44.2603 18.8604 44.7924 18.6751 45.2908C18.4943 45.8168 18.2267 46.3088 17.8834 46.7464C17.5411 47.1815 17.1343 47.5617 16.6771 47.8739C16.2308 48.1856 15.7285 48.4081 15.1977 48.529C14.6654 48.6488 14.1137 48.6539 13.5792 48.544C13.4369 48.5496 13.2953 48.5218 13.1658 48.4626L13.0969 48.4025L12.8213 48.3737L12.6835 48.3223L12.5457 48.2747C12.4696 48.2029 12.3735 48.1558 12.2702 48.1394C12.1665 48.1246 12.0702 48.0778 11.9946 48.0054C11.7948 47.9555 11.5992 47.8902 11.4096 47.81C11.248 47.7398 11.0751 47.6722 10.8934 47.602C10.5252 47.4254 10.1694 47.245 9.82616 47.0621C9.48292 46.8792 9.12465 46.675 8.75761 46.4496C8.40216 46.2772 8.06619 46.0672 7.75546 45.8232C7.45565 45.5877 7.14582 45.3539 6.82597 45.1217C6.1844 44.6599 5.58495 44.1421 5.03462 43.5746C4.48636 43.007 3.96948 42.4098 3.4863 41.7858C3.00727 41.1673 2.58071 40.5098 2.21106 39.8203C1.79883 39.143 1.45314 38.4273 1.17885 37.6832C0.990577 37.3299 0.840654 36.9574 0.731639 36.5721C0.617227 36.1729 0.514089 35.7721 0.422225 35.3695C0.0559843 33.7792 -0.0602389 32.1415 0.0777366 30.5154C0.0773292 30.1081 0.100332 29.7011 0.146634 29.2965C0.192983 28.9007 0.261881 28.486 0.353327 28.0601C0.408266 27.9746 0.432559 27.8731 0.422225 27.772L0.492376 27.6267V27.4876C0.484882 27.4264 0.496244 27.3643 0.524945 27.3097C0.554388 27.2554 0.566208 27.1932 0.558769 27.1319L0.627666 26.845C0.706891 26.6485 0.764438 26.4439 0.799284 26.2349C0.834457 26.026 0.891993 25.8215 0.970902 25.6249C1.52047 24.0798 2.18803 22.5792 2.96769 21.1365C3.33514 20.4408 3.73726 19.7631 4.17403 19.1034C4.6108 18.4436 5.08139 17.7801 5.58581 17.1129C5.8138 16.8039 6.05431 16.4944 6.30735 16.1846C6.5604 15.8748 6.82472 15.562 7.10031 15.2463C7.37465 14.9307 7.65149 14.63 7.92708 14.3382C8.20267 14.0463 8.47701 13.7669 8.7526 13.4976C9.89245 12.3672 11.1124 11.3206 12.4029 10.3659C14.9552 8.48029 17.7022 6.87353 20.5968 5.57309C22.0122 4.91952 23.4601 4.33877 24.9348 3.83311C26.4038 3.33203 27.8728 2.86436 29.3418 2.4301C30.0759 2.19209 30.7987 1.98664 31.5114 1.82004C32.2242 1.65343 32.9671 1.47054 33.7487 1.26885C34.5279 1.11519 35.2854 0.975726 36.0211 0.850457C36.7569 0.725189 37.5139 0.609523 38.2922 0.503462C39.8072 0.292176 41.3338 0.138512 42.8721 0.042473C44.4209 -0.0545327 45.9751 -0.0268845 47.5195 0.12515C49.0772 0.264018 50.6202 0.53516 52.1319 0.93564C52.499 1.02583 52.8836 1.12229 53.2681 1.22877C53.6527 1.33525 54.0373 1.45926 54.4031 1.5908C55.1388 1.8572 55.8967 2.16661 56.6767 2.51904C58.1258 3.26158 59.4883 4.16233 60.7392 5.2048C62.0114 6.34702 63.123 7.65629 64.0438 9.0969C65.0097 10.6222 65.7083 12.301 66.1094 14.0613C66.5277 15.8986 66.6674 17.7883 66.5241 19.6671C66.4293 20.6161 66.28 21.5588 66.0769 22.4906C65.8734 23.4294 65.585 24.3476 65.215 25.234C64.8596 26.1344 64.4457 27.0107 63.9761 27.8572C63.5179 28.679 63.0126 29.4737 62.4629 30.2373C61.3498 31.7395 60.0799 33.119 58.6747 34.3523C57.3227 35.4871 55.8708 36.4971 54.3367 37.3701C53.0676 38.1554 51.7312 38.8262 50.3431 39.3744L51.1699 39.4683C52.052 39.5629 52.9264 39.7191 53.7867 39.9356C54.0164 39.9965 54.2227 40.0604 54.4056 40.1272C54.5897 40.1936 54.7952 40.2525 55.0319 40.3164C55.479 40.4557 55.916 40.6257 56.3397 40.825C56.7607 40.9572 57.1563 41.1596 57.5097 41.4238C57.7301 41.5232 57.9399 41.6445 58.1361 41.7858C58.3128 41.9204 58.4964 42.0459 58.686 42.1616C59.4749 42.7068 60.1906 43.3509 60.8156 44.0782C61.4922 44.8198 62.071 45.6449 62.538 46.5335C62.766 47.0095 62.9723 47.4759 63.1568 47.9327C63.3414 48.394 63.4799 48.8723 63.5702 49.3608C63.8454 50.3768 63.9956 51.4226 64.0174 52.475C64.0391 53.55 63.9586 54.6246 63.7769 55.6844C63.6447 56.7413 63.4028 57.7816 63.0554 58.7885C62.6978 59.7935 62.2622 60.769 61.7526 61.706C61.2641 62.6682 60.6994 63.5898 60.064 64.462C59.4459 65.3057 58.7673 66.1032 58.0334 66.8483C56.6401 68.326 55.0401 69.594 53.2832 70.6127C52.4657 71.1352 51.6121 71.599 50.7289 72.0006C49.8554 72.3973 48.9831 72.771 48.1121 73.1218C47.2319 73.4235 46.3352 73.6744 45.4263 73.8734C44.5528 74.0647 43.6801 74.22 42.8082 74.3394C42.5789 74.3695 42.361 74.4033 42.1555 74.4309C41.9388 74.4598 41.7198 74.4669 41.5016 74.4521L40.8815 74.5373L40.5371 74.516L40.1926 74.5636C39.3202 74.6301 38.4434 74.6125 37.5744 74.511C35.8332 74.3596 34.1438 73.8408 32.6176 72.989C31.921 72.5241 31.2541 72.0162 30.6208 71.4682C30.0212 70.8907 29.4903 70.2459 29.0386 69.5466C28.8069 69.2109 28.5914 68.8601 28.3835 68.4981C28.1774 68.1354 28.0046 67.7547 27.8674 67.3607L27.454 66.1756C27.3773 65.9827 27.3308 65.779 27.3162 65.5718C27.2703 65.5334 27.2473 65.4219 27.2473 65.2374L27.1784 65.1121V64.9067C27.1307 64.7446 27.1213 64.5736 27.1511 64.4073C27.1809 64.2409 27.249 64.0838 27.35 63.9484C27.5423 63.6777 27.8218 63.4813 28.1417 63.3922C28.2746 63.3247 28.4211 63.2882 28.5701 63.2854C28.7192 63.2826 28.8669 63.3135 29.0023 63.3759C29.2319 63.4786 29.4157 63.6624 29.5184 63.892L29.5873 64.1588V64.2277L29.6562 64.353C29.654 64.3713 29.6559 64.39 29.6617 64.4075C29.6676 64.425 29.6773 64.4411 29.69 64.4544C29.7025 64.4675 29.7119 64.4831 29.7178 64.5002C29.7236 64.5173 29.7257 64.5354 29.7239 64.5534C29.7635 64.6264 29.7979 64.7022 29.8266 64.7801C29.855 64.8586 29.8893 64.9348 29.9293 65.0081C30.0091 65.1541 30.0781 65.3056 30.136 65.4616C30.193 65.6191 30.2621 65.772 30.3427 65.9188C30.5268 66.2157 30.7097 66.4876 30.8951 66.7393C31.0863 66.9995 31.2929 67.248 31.5139 67.4834C32.3172 68.4491 33.3625 69.184 34.5429 69.613C34.8333 69.743 35.1326 69.8519 35.4386 69.9387C35.7548 70.0245 36.0773 70.0844 36.4032 70.1178C36.7103 70.1661 37.0205 70.192 37.3314 70.1955C37.6296 70.2022 37.9636 70.2022 38.3336 70.1955C39.0084 70.1945 39.68 70.1027 40.3304 69.9224L40.606 69.8836L40.7425 69.8648L40.8126 69.856L40.8878 69.8385ZM19.537 73.9636C19.331 74.2011 19.1127 74.4277 18.8831 74.6426C18.6525 74.855 18.4342 75.0805 18.2292 75.3178C17.9987 75.5332 17.7578 75.742 17.5064 75.9441C17.2558 76.1395 16.9903 76.3487 16.7147 76.5704C15.6298 77.3392 14.4511 77.966 13.2072 78.4357C12.9074 78.5653 12.5962 78.6667 12.2777 78.7389C11.9783 78.8015 11.6676 78.8792 11.3482 78.9693L10.4525 79.0946C10.2927 79.1197 10.13 79.1197 9.97021 79.0946L9.76352 79.1222L9.69337 79.1309L9.62573 79.1422L9.55558 79.1522C9.23489 79.1522 8.92923 79.146 8.62733 79.1397C8.33847 79.1376 8.0504 79.1091 7.76674 79.0545C7.1439 79.045 6.53154 78.8928 5.97664 78.6098C5.68026 78.5262 5.39219 78.4155 5.11605 78.2791C4.86551 78.1522 4.60119 78.0161 4.3231 77.8707C4.09344 77.672 3.87547 77.4715 3.66919 77.2694C3.46375 77.069 3.24453 76.8686 3.01654 76.6719C2.26142 75.8181 1.69763 74.8127 1.36299 73.7231C1.09697 72.6554 0.98102 71.5558 1.0185 70.4561C1.11548 69.3548 1.36856 68.2729 1.77012 67.2429C1.86156 66.9999 1.96554 66.7581 2.08079 66.5089C2.19603 66.2596 2.3213 66.0165 2.45659 65.766C2.74009 65.3036 3.06235 64.8661 3.41991 64.4582C3.47369 64.3752 3.54474 64.3048 3.62821 64.2518C3.71168 64.1987 3.80561 64.1643 3.90358 64.1509C4.00155 64.1375 4.10127 64.1453 4.19594 64.1739C4.2906 64.2025 4.37798 64.2512 4.45212 64.3167C4.56034 64.3998 4.63889 64.5157 4.67612 64.647C4.71335 64.7783 4.70728 64.9181 4.65882 65.0457V65.1171C4.57016 65.3028 4.5009 65.4972 4.45212 65.6971C4.39672 65.9179 4.32769 66.135 4.24543 66.3473C4.24441 66.4533 4.23308 66.5591 4.21161 66.6629C4.19025 66.7673 4.17893 66.8734 4.17778 66.9799C4.11981 67.1614 4.09644 67.3522 4.10889 67.5423C4.05802 68.3213 4.12774 69.1034 4.31558 69.861C4.43083 70.5278 4.71553 71.1537 5.14235 71.6787C5.42764 72.196 5.85898 72.6177 6.38252 72.8913C6.51544 72.9627 6.65364 73.0239 6.7959 73.0742C6.921 73.1187 7.03752 73.1844 7.14039 73.2684L7.96717 73.3636C8.24362 73.3786 8.52089 73.363 8.79394 73.3172L9.68711 73.1919L9.75726 73.1832V73.113L9.82616 73.103L9.8938 73.0942L10.1706 73.0554C10.2325 73.0108 10.3022 72.9781 10.3761 72.9589C10.4505 72.9396 10.5206 72.9065 10.5828 72.8612L10.9974 72.6658L11.4096 72.4691C11.64 72.3013 11.868 72.1309 12.0998 71.9593C12.3514 71.768 12.5823 71.551 12.7888 71.3117C12.8806 71.2064 12.9955 71.0874 13.1333 70.9546C13.271 70.8194 13.3838 70.7041 13.4777 70.5951C13.5679 70.4461 13.6606 70.3045 13.7533 70.1767C13.846 70.049 13.9362 69.9099 14.0289 69.7596C14.4645 69.1357 14.8555 68.4818 15.1989 67.8029C15.2891 67.6037 15.3818 67.4196 15.4745 67.2442C15.5672 67.0688 15.6587 66.8859 15.7501 66.6892C15.8416 66.4926 15.9217 66.3134 15.9906 66.1356C16.0595 65.9577 16.1385 65.7598 16.2312 65.518C16.5067 64.7881 16.7823 63.9901 17.0579 63.1241C17.3751 62.3067 17.651 61.4738 17.8847 60.6287C18.1144 59.7936 18.344 58.9439 18.5737 58.0795C18.7115 57.6478 18.8367 57.2168 18.9495 56.7867C19.0635 56.3546 19.1662 55.9274 19.2589 55.5015C19.3516 55.0756 19.4543 54.6446 19.5683 54.215C19.6823 53.7853 19.785 53.3381 19.8777 52.8596C19.9241 52.6241 19.9692 52.4111 20.0155 52.2194C20.0619 52.0278 20.107 51.8161 20.1533 51.5768C20.1997 51.3375 20.2448 51.1171 20.2911 50.9016C20.3375 50.6861 20.3826 50.4632 20.4289 50.2289L20.7045 48.8773L20.9801 47.5256L22.0812 42.0576C22.3109 41.1507 22.5176 40.2471 22.7013 39.3468C22.885 38.4466 23.0917 37.5204 23.3214 36.5684C23.551 35.6155 23.792 34.6726 24.0442 33.7398C24.2964 32.807 24.5832 31.8578 24.9048 30.8924C25.2263 29.9287 25.5603 28.962 25.9069 27.9925C26.2535 27.0229 26.6564 26.0441 27.1158 25.0562C27.2538 24.8455 27.3692 24.6208 27.4602 24.386C27.5847 24.1283 27.7227 23.8774 27.8736 23.6343C27.9549 23.5044 28.0241 23.3673 28.0803 23.2247C28.1267 23.0995 28.1718 22.9955 28.2181 22.8953C28.3157 22.782 28.3967 22.6555 28.4586 22.5195C28.52 22.3831 28.6011 22.2565 28.6992 22.1437L29.1125 21.4659C29.2374 21.1941 29.3997 20.9411 29.5948 20.7143C29.7261 20.4752 29.8756 20.2465 30.042 20.0304C30.2024 19.8249 30.3753 19.5932 30.5581 19.3376C30.7878 19.0771 30.9828 18.8428 31.1432 18.6349C31.3221 18.4116 31.5176 18.2022 31.7282 18.0085C31.9574 17.7467 32.1641 17.5237 32.3482 17.3346C32.5324 17.1454 32.7378 16.9488 32.9683 16.732C33.8389 15.9686 34.7596 15.2643 35.7242 14.6238C36.6536 14.0324 37.6465 13.5475 38.6843 13.1782C39.6665 12.8267 40.6793 12.5675 41.7096 12.404C41.8535 12.3783 42.0012 12.3826 42.1434 12.4164C42.2856 12.4502 42.4194 12.5129 42.5364 12.6007C42.6503 12.6888 42.7411 12.8032 42.8011 12.9341C42.8611 13.065 42.8885 13.2085 42.8808 13.3523C42.8837 13.5498 42.8418 13.7454 42.7583 13.9244C42.6748 14.1033 42.5518 14.2611 42.3986 14.3858C42.0303 14.7127 41.6758 15.0284 41.33 15.3265C40.9843 15.6247 40.6298 15.9403 40.264 16.2673C39.666 16.9028 39.0919 17.558 38.5415 18.2328C37.6183 19.5197 36.8339 20.9008 36.2015 22.3528C35.8795 23.0866 35.6034 23.8397 35.3747 24.6077C35.1442 25.3768 34.9162 26.1685 34.6845 26.9878C34.4528 27.8071 34.2598 28.6351 34.0995 29.4857C33.9392 30.3362 33.7663 31.1893 33.5834 32.0436C33.4456 32.9381 33.2969 33.8212 33.1374 34.6931C32.9779 35.565 32.8055 36.4523 32.6201 37.355C32.4363 38.2545 32.2643 39.1535 32.104 40.0521C31.9436 40.9507 31.7486 41.8752 31.519 42.8255L30.9039 45.6002L30.2775 48.3812C30.2095 48.8427 30.0945 49.296 29.9343 49.7341L29.5898 51.1634C29.5439 51.4014 29.498 51.6382 29.452 51.8737C29.4036 52.1184 29.3344 52.3585 29.2453 52.5915C29.1562 52.8248 29.0874 53.0654 29.0399 53.3105C28.9903 53.5557 28.9212 53.7966 28.8332 54.0308C28.601 54.9837 28.3254 55.919 28.0064 56.8368C27.8678 57.317 27.7296 57.7851 27.5918 58.2411C27.454 58.6971 27.2953 59.1685 27.1158 59.6554L26.0835 62.494C25.8539 62.985 25.6472 63.474 25.4635 63.9609C25.2841 64.4377 25.077 64.9037 24.8434 65.3564C24.4229 66.3508 23.9401 67.3177 23.3978 68.2513C23.177 68.7567 22.8996 69.2353 22.571 69.6782C22.3199 70.1851 22.02 70.6663 21.6753 71.115C21.5395 71.3618 21.3902 71.601 21.2281 71.8315C21.0665 72.062 20.8949 72.305 20.712 72.5606C20.4815 72.8237 20.2861 73.0617 20.127 73.2621C19.9679 73.4625 19.7712 73.7018 19.542 73.9636" fill="#11361F"/>
<path d="M100.61 36.0997C100.691 36.1379 100.761 36.196 100.814 36.2687C100.867 36.3415 100.9 36.4264 100.911 36.5156C100.946 36.7056 100.928 36.9012 100.86 37.0819C100.759 37.3094 100.641 37.5292 100.508 37.7395L100.207 38.441C100.107 38.6577 99.9569 38.9659 99.7553 39.368C99.5536 39.7701 99.3794 40.0946 99.2542 40.3501C99.0187 40.7886 98.7919 41.2262 98.574 41.6629C98.3548 42.0989 98.1305 42.5536 97.8963 43.0271C97.6274 43.4697 97.3676 43.9119 97.1171 44.3537C96.8666 44.7934 96.606 45.2193 96.3367 45.6289C96.0686 46.0724 95.7922 46.5175 95.5074 46.9643C95.223 47.409 94.9286 47.8412 94.6305 48.2521C94.4626 48.4788 94.3036 48.6968 94.1532 48.9022L93.6722 49.5473C93.5052 49.7386 93.3206 49.9419 93.1185 50.1574C92.9181 50.3704 92.7177 50.5758 92.516 50.775C92.0919 51.222 91.6387 51.6405 91.1593 52.0277C91.024 52.1129 90.89 52.2093 90.7559 52.312C90.6134 52.4211 90.4621 52.5183 90.3037 52.6027C89.9616 52.8122 89.5888 52.9669 89.1989 53.0611L89.0999 53.125L89.0485 53.1325L88.8982 53.1538C88.853 53.1542 88.809 53.1691 88.7729 53.1964C88.7368 53.2238 88.693 53.2391 88.6477 53.2403L88.0927 53.3167C87.6929 53.3733 87.2875 53.3784 86.8864 53.3317C86.4505 53.2748 86.0272 53.1457 85.6337 52.9496C85.2497 52.7863 84.9073 52.5388 84.6316 52.2256C84.3148 51.9933 84.0706 51.6757 83.9275 51.3099C83.7189 51.0239 83.5655 50.7014 83.4753 50.3591C83.3441 50.0805 83.251 49.7856 83.1985 49.4822C83.1484 49.1849 83.0899 48.8889 83.0231 48.5941L82.8728 46.9405V46.8403C82.7062 47.2023 82.5283 47.5631 82.3454 47.9276C82.1625 48.2922 81.9696 48.6579 81.7667 49.0225C81.5996 49.3173 81.4155 49.6221 81.2142 49.9369C81.0129 50.2518 80.8121 50.5591 80.6117 50.8589C80.377 51.1612 80.1423 51.4477 79.9077 51.7183C79.6734 51.9863 79.4216 52.2607 79.1561 52.5338C78.6032 53.1281 77.9581 53.6293 77.2457 54.0182C76.5125 54.4655 75.7154 54.7984 74.8819 55.0053C74.7763 55.0151 74.674 55.0467 74.5812 55.098L74.5311 55.1055L74.4798 55.1118L74.4284 55.1193L74.2781 55.1406L73.6768 55.2233C73.2085 55.2956 72.7319 55.2952 72.2638 55.222C71.7692 55.1926 71.2877 55.0513 70.8557 54.8086C70.4043 54.5814 69.9961 54.277 69.6494 53.9092C69.3043 53.5553 69.0161 53.15 68.7951 52.7079C68.6922 52.5151 68.5997 52.3169 68.5182 52.1141C68.4355 51.9037 68.3604 51.7032 68.2915 51.5103C68.1648 51.1178 68.0726 50.715 68.0159 50.3065C67.9649 49.924 67.9232 49.5482 67.8906 49.1791V48.0629C67.8906 47.6871 67.9082 47.3113 67.942 46.9355C67.9746 46.591 68.0009 46.2503 68.0171 45.9095C68.0348 45.563 68.0767 45.2181 68.1424 44.8773C68.1762 44.7045 68.2025 44.5379 68.2176 44.385C68.2391 44.2136 68.2812 44.0454 68.3428 43.8839C68.4105 43.4681 68.4769 43.1211 68.5445 42.8405C68.6122 42.5265 68.679 42.2041 68.745 41.8734C68.8139 41.5414 68.8802 41.2195 68.9466 40.9038C69.0477 40.5865 69.14 40.2608 69.2235 39.9267C69.3062 39.5935 69.3989 39.269 69.4991 38.9484C69.5667 38.6364 69.6507 38.322 69.7496 38.0001C69.8486 37.6781 69.95 37.3637 70.0515 37.0468C70.1505 36.7624 70.2595 36.458 70.3785 36.1373C70.4975 35.8166 70.6039 35.4972 70.7067 35.179C70.8094 34.8608 70.9146 34.5527 71.0324 34.2458C71.1501 33.9389 71.2591 33.6294 71.3606 33.3113C71.6286 32.6999 71.8792 32.0886 72.1122 31.4798C72.3452 30.871 72.5982 30.2635 72.8638 29.6497C72.9716 29.3486 73.1066 29.0581 73.2672 28.7815C73.3802 28.4661 73.515 28.1588 73.6705 27.8621C73.7273 27.7055 73.7943 27.5527 73.871 27.4048C73.9467 27.255 74.014 27.1011 74.0726 26.9438L74.3232 26.5029L74.4221 26.2874L74.5236 26.0206C74.9902 25.0694 75.7841 24.3182 76.7597 23.9048C77.2023 23.6957 77.6839 23.5819 78.1733 23.5707C78.6627 23.5595 79.149 23.6511 79.6008 23.8397C80.0222 24.0061 80.3996 24.2674 80.7037 24.6033C81.0079 24.9391 81.2305 25.3405 81.3545 25.7763C81.5041 26.2495 81.5589 26.7475 81.5159 27.2419C81.473 27.7362 81.333 28.2173 81.104 28.6575L81.0539 28.7164L80.7019 29.4755L80.2985 30.3424L79.8964 31.1604L79.493 31.9759C79.2249 32.5559 78.9732 33.1146 78.7414 33.6545C78.5097 34.1944 78.2541 34.7544 77.9898 35.3331C77.4887 36.4513 77.0027 37.5679 76.5317 38.6828C76.0607 39.7977 75.6251 40.9251 75.2251 42.065C75.1262 42.3494 75.0322 42.6237 74.9495 42.8906C74.8668 43.1574 74.7729 43.4317 74.6727 43.7173C74.611 43.8426 74.5688 43.9765 74.5474 44.1144C74.5253 44.253 74.4831 44.3876 74.4221 44.514C74.3611 44.64 74.3189 44.7742 74.2969 44.9124C74.2741 45.0504 74.232 45.1846 74.1716 45.3108C74.104 45.5901 74.0463 45.8607 73.9975 46.12C73.9486 46.3793 73.8872 46.6361 73.8208 46.8816C73.7577 47.1399 73.7079 47.4012 73.6718 47.6646C73.6367 47.9063 73.6029 48.1494 73.5703 48.3886C73.5018 48.7748 73.5018 49.17 73.5703 49.5561C73.5639 49.7078 73.5812 49.8595 73.6217 50.0058V50.2564C73.6549 50.3166 73.6726 50.3842 73.673 50.453C73.7258 50.5392 73.7937 50.6152 73.8735 50.6773C73.9163 50.7283 73.9704 50.7687 74.0315 50.7955C74.0925 50.8222 74.1589 50.8345 74.2255 50.8314C74.2648 50.8499 74.3073 50.8609 74.3507 50.8639C74.3939 50.8685 74.4361 50.8795 74.476 50.8965L74.5274 50.889H74.5775L74.6276 50.8815V50.9328L74.7779 50.9128C75.1913 50.9241 75.6025 50.8495 75.9855 50.6936C76.4396 50.5675 76.8649 50.3548 77.2382 50.0672C77.4386 49.9419 77.6478 49.7904 77.8645 49.625C78.0848 49.4575 78.294 49.2759 78.4909 49.0813C78.6926 48.8822 78.8942 48.678 79.0934 48.4625C79.2997 48.243 79.485 48.0048 79.6471 47.751C80.0246 47.2818 80.3771 46.7929 80.7031 46.2866C81.0372 45.7655 81.3554 45.2473 81.6577 44.732C81.9583 44.1821 82.2364 43.6284 82.4869 43.0684C82.7375 42.5085 82.998 41.941 83.2661 41.361C83.2661 41.3285 83.2749 41.3084 83.2924 41.3059C83.31 41.3034 83.3162 41.2859 83.3162 41.2508C83.3826 40.9051 83.4415 40.5756 83.4916 40.2624C83.5417 39.9493 83.6018 39.621 83.667 39.2741C83.834 38.2352 84.0349 37.2597 84.2695 36.3478C84.3706 35.8609 84.4796 35.3807 84.5965 34.9072C84.7142 34.4324 84.8395 33.9526 84.9723 33.4591C85.1051 32.9655 85.2404 32.482 85.3744 32.0072C85.5084 31.5324 85.6425 31.0489 85.7778 30.5553L86.6835 27.6892C86.7499 27.4762 86.825 27.2558 86.9089 27.024C86.9929 26.7923 87.0668 26.553 87.1357 26.3062L87.3862 25.5546C87.4518 25.449 87.4945 25.3308 87.5115 25.2076C87.5286 25.0845 87.5713 24.9663 87.6367 24.8606C87.986 23.9193 88.6498 23.1276 89.5158 22.6196C89.9096 22.3645 90.3526 22.195 90.8161 22.1218C91.2796 22.0487 91.7533 22.0736 92.2066 22.1949C92.6348 22.3014 93.0334 22.5032 93.3729 22.7852C93.7123 23.0671 93.9837 23.422 94.167 23.8234C94.366 24.2458 94.4733 24.7055 94.4817 25.1723C94.4901 25.6391 94.3995 26.1024 94.2159 26.5317C94.1873 26.5612 94.17 26.5998 94.167 26.6407L94.1157 26.6482L93.8651 27.2921L93.6146 27.936C93.5144 28.1865 93.4217 28.4208 93.3377 28.635C93.2538 28.8492 93.1786 29.0621 93.111 29.2751C92.944 29.7035 92.7686 30.1428 92.5849 30.5929C92.4011 31.0431 92.2253 31.4819 92.0575 31.9095C91.8884 32.3705 91.7305 32.8252 91.5777 33.2687C91.4249 33.7121 91.2695 34.1455 91.1004 34.579C90.9334 35.0416 90.7827 35.4939 90.6482 35.9356C90.5138 36.3774 90.363 36.8129 90.196 37.2422C90.029 37.7049 89.8866 38.1558 89.7688 38.5951C89.6509 39.037 89.5083 39.4719 89.3417 39.8979C89.2076 40.3564 89.0911 40.8048 88.9897 41.2408C88.8882 41.6767 88.788 42.1076 88.689 42.5273C88.5554 42.9849 88.4464 43.423 88.3621 43.8414C88.2777 44.2598 88.2021 44.6773 88.1353 45.094L87.985 46.333C87.985 46.5021 87.9762 46.6825 87.9587 46.8704C87.9412 47.0583 87.9349 47.2361 87.9349 47.4053C87.9677 47.5618 87.9849 47.7213 87.9862 47.8813C87.9849 48.024 88.0022 48.1664 88.0376 48.3047C88.0697 48.4012 88.0862 48.5023 88.0865 48.6041C88.0877 48.6223 88.093 48.6401 88.1019 48.6561C88.1107 48.6721 88.123 48.686 88.1378 48.6968V48.7481C88.1704 48.7769 88.1704 48.7945 88.1378 48.7995V48.8509C88.1994 48.8834 88.2712 48.891 88.3383 48.8721C88.3383 48.906 88.3721 48.9198 88.4397 48.9097L88.5387 48.896L88.59 48.8884L88.8406 48.8546C88.9014 48.8142 88.9702 48.7873 89.0423 48.7757C89.1221 48.7596 89.1933 48.7151 89.2427 48.6504C89.3767 48.564 89.5195 48.4776 89.6699 48.3874C89.8352 48.2899 89.995 48.1833 90.1484 48.0679C90.315 47.9101 90.4766 47.7673 90.6269 47.647C90.7989 47.5028 90.9586 47.3444 91.1042 47.1735C91.2721 47.0157 91.4387 46.8641 91.6053 46.7225C91.7851 46.5689 91.9527 46.4013 92.1063 46.2215C92.4087 45.8749 92.7189 45.5271 93.0371 45.178C93.354 44.8285 93.6634 44.4652 93.9678 44.0844C94.2722 43.7036 94.5704 43.324 94.8723 42.9432L95.778 41.8032C96.046 41.3924 96.3304 40.999 96.6323 40.6169C96.9342 40.2349 97.2186 39.8428 97.4879 39.4319C97.7124 39.154 97.9072 38.8534 98.0691 38.535C98.2299 38.2183 98.4235 37.9193 98.6466 37.6431L99.05 37.0292C99.1253 36.9409 99.1928 36.8462 99.2517 36.7461C99.3181 36.6359 99.3845 36.5244 99.4521 36.4142C99.5034 36.3137 99.5751 36.225 99.6627 36.1538C99.7502 36.0827 99.8517 36.0306 99.9606 36.001C100.07 35.9714 100.183 35.9649 100.295 35.9819C100.406 35.9989 100.514 36.039 100.61 36.0997Z" fill="#11361F"/>
<path d="M125.162 32.6024C125.597 32.7778 125.7 33.0859 125.464 33.5244V33.5757C125.062 34.3766 124.66 35.17 124.258 35.9559C123.856 36.7417 123.454 37.5175 123.05 38.2833C122.616 39.0863 122.173 39.8755 121.745 40.6459C121.316 41.4163 120.857 42.1917 120.387 42.9646C120.319 43.0766 120.261 43.1784 120.212 43.2703C120.162 43.3597 120.103 43.4437 120.036 43.5208C119.969 43.6323 119.902 43.735 119.835 43.8265C119.767 43.9179 119.701 44.0232 119.634 44.1334C119.5 44.3238 119.374 44.5092 119.258 44.6946C119.13 44.8941 118.987 45.0838 118.83 45.2621C118.697 45.4496 118.555 45.6302 118.404 45.8032C118.254 45.9761 118.093 46.159 117.925 46.3532C117.631 46.7597 117.275 47.1177 116.869 47.4142C116.496 47.8199 116.054 48.1562 115.563 48.4076C115.296 48.5707 115.009 48.6971 114.709 48.7834C114.387 48.8957 114.046 48.9434 113.706 48.9237C113.367 48.9118 113.03 48.8562 112.704 48.7583C112.381 48.6879 112.083 48.5322 111.841 48.3074C111.608 48.1361 111.389 47.9454 111.187 47.7374C111.127 47.6197 111.051 47.5106 110.962 47.4129C110.873 47.3153 110.797 47.2062 110.736 47.0885C110.481 46.6697 110.278 46.2207 110.134 45.7519C110.066 45.5239 110 45.3059 109.932 45.0942C109.864 44.8825 109.797 44.647 109.73 44.3864C109.666 44.1687 109.624 43.945 109.605 43.7188C109.589 43.5021 109.563 43.2766 109.53 43.0448L109.38 41.6944C109.28 39.8766 109.331 38.0536 109.53 36.244C109.665 35.2101 109.867 34.099 110.134 32.9106C109.44 33.1079 108.734 33.2569 108.02 33.3565C106.929 33.5756 105.818 33.6793 104.705 33.6659C103.862 33.6287 103.023 33.5421 102.19 33.4066C102.16 33.4401 102.135 33.4777 102.115 33.5181C102.096 33.5591 102.07 33.597 102.04 33.6309C101.869 34.105 101.651 34.5604 101.387 34.99C101.291 35.2315 101.182 35.4673 101.059 35.6965C100.942 35.9162 100.817 36.1367 100.683 36.358C100.585 36.5734 100.474 36.7914 100.357 37.0119C100.239 37.2323 100.115 37.4516 99.9807 37.6733C99.9143 37.7848 99.8479 37.895 99.779 38.0053C99.7101 38.1155 99.6462 38.227 99.5786 38.3397C99.4594 38.5703 99.3246 38.7926 99.1752 39.0049C99.143 39.0755 99.0944 39.1374 99.0333 39.1853C98.9723 39.2333 98.9007 39.2659 98.8245 39.2805C98.676 39.3229 98.5181 39.3185 98.3723 39.268C98.256 39.1785 98.173 39.0527 98.1364 38.9106C98.0999 38.7685 98.1119 38.6183 98.1706 38.4838C98.3004 38.2719 98.4179 38.0527 98.5226 37.8274C98.6228 37.6094 98.723 37.3927 98.8245 37.176C98.926 36.9593 99.0324 36.74 99.1514 36.5208C99.2704 36.3016 99.3769 36.0836 99.4796 35.8669C99.5786 35.6164 99.6801 35.3809 99.779 35.1642C99.878 34.9474 99.9807 34.7307 100.081 34.514C100.282 34.0463 100.467 33.5979 100.635 33.1686C100.664 33.1393 100.681 33.1007 100.685 33.0596C100.25 32.8843 99.8078 32.6914 99.3782 32.4796C98.9333 32.2626 98.5133 31.998 98.1255 31.6905C97.6135 31.3455 97.17 30.9084 96.8177 30.4014C96.4057 29.8627 96.0988 29.2512 95.9132 28.5988C95.7116 27.8967 95.6599 27.16 95.7617 26.4367C95.8335 25.6353 96.0733 24.858 96.4657 24.1555C96.5977 23.9993 96.7155 23.8316 96.8177 23.6545C96.8805 23.5813 96.9483 23.5127 97.0206 23.449C97.0916 23.3839 97.1589 23.3149 97.2223 23.2423C97.3472 23.0967 97.4815 22.9595 97.6244 22.8314C97.758 22.7103 97.9088 22.5876 98.0766 22.4631C98.3559 22.2641 98.6599 22.1024 98.9811 21.9821L99.8868 21.6527L100.339 21.59L100.539 21.5625L100.591 21.5549L100.641 21.5487L100.741 21.5362L101.143 21.4785C101.293 21.4605 101.445 21.4563 101.595 21.466C101.729 21.4816 101.864 21.4883 101.999 21.4861C102.152 21.4873 102.304 21.5084 102.451 21.5487C102.596 21.5873 102.738 21.6359 102.877 21.694L103.305 21.8882C103.434 21.9674 103.552 22.062 103.657 22.17C103.758 22.274 103.858 22.388 103.958 22.5082C104.053 22.621 104.129 22.7478 104.185 22.8841C104.235 23.0093 104.294 23.1559 104.36 23.3162C104.425 23.4371 104.467 23.5686 104.485 23.7046C104.502 23.8377 104.527 23.9695 104.562 24.0992C104.559 24.2428 104.567 24.3864 104.586 24.5288C104.603 24.6534 104.611 24.7789 104.611 24.9046C104.612 25.0503 104.604 25.196 104.586 25.3406C104.568 25.4672 104.56 25.5949 104.562 25.7226C104.529 25.8492 104.512 25.9791 104.51 26.1097C104.508 26.2407 104.491 26.371 104.459 26.4981C104.426 26.6384 104.376 26.8822 104.309 27.2296L105.311 27.0893C106.881 26.8568 108.417 26.4362 109.887 25.8366C110.297 25.7117 110.7 25.5628 111.093 25.3907C111.495 25.2161 111.897 25.0491 112.3 24.8896C112.702 24.6992 113.095 24.5138 113.482 24.3196C113.869 24.1255 114.278 23.9438 114.714 23.7421L115.869 23.3275C116.263 23.1656 116.688 23.092 117.113 23.1119C117.539 23.1318 117.955 23.2447 118.333 23.4428C118.706 23.6323 119.031 23.9045 119.284 24.2385C119.536 24.5726 119.709 24.9597 119.789 25.3706C119.923 25.9935 119.88 26.6414 119.664 27.2409C119.456 27.8471 119.103 28.393 118.634 28.8306C118.149 29.3201 117.695 29.8411 117.278 30.3902C117.077 30.6883 116.875 30.9952 116.674 31.3109C116.472 31.6266 116.289 31.9485 116.12 32.2755C115.377 33.6812 114.752 35.147 114.254 36.6574C114.152 37.0432 114.052 37.4215 113.952 37.7848C113.852 38.1481 113.75 38.5364 113.651 38.9122C113.617 39.0863 113.584 39.2767 113.551 39.4859C113.519 39.6951 113.483 39.8843 113.451 40.0572C113.415 40.2452 113.39 40.435 113.376 40.6259C113.361 40.8167 113.335 41.0066 113.299 41.1946C113.234 41.5669 113.201 41.9441 113.2 42.322V43.4394C113.234 43.6044 113.25 43.7722 113.25 43.9405C113.25 44.1088 113.267 44.2766 113.301 44.4416C113.335 44.7457 113.419 45.0421 113.551 45.3184C113.619 45.5226 113.721 45.714 113.852 45.8847C113.89 45.9549 113.941 46.017 114.003 46.0676C114.036 46.0951 114.061 46.1114 114.078 46.1089C114.096 46.1064 114.12 46.1202 114.152 46.1477C114.187 46.1437 114.222 46.148 114.254 46.1603C114.285 46.1721 114.319 46.1759 114.353 46.1715C114.414 46.1636 114.473 46.1467 114.529 46.1214C114.585 46.095 114.644 46.0777 114.705 46.0701C114.846 46.0153 114.981 45.9456 115.107 45.8621C115.241 45.7769 115.39 45.6892 115.559 45.5953C115.893 45.3934 116.197 45.1464 116.464 44.8612C116.771 44.6155 117.057 44.3435 117.318 44.0482L118.174 43.0661C118.245 42.9863 118.312 42.9027 118.374 42.8156C118.443 42.7229 118.509 42.6377 118.576 42.565C118.697 42.385 118.832 42.2141 118.979 42.0539C120.017 40.6708 120.957 39.2166 121.793 37.7021C122.027 37.3321 122.245 36.9634 122.446 36.596C122.648 36.2285 122.849 35.8456 123.049 35.4473C123.25 35.0472 123.451 34.6556 123.652 34.2722C123.854 33.8889 124.037 33.4993 124.206 33.1047C124.243 33.013 124.297 32.9294 124.365 32.8589C124.434 32.7883 124.517 32.7322 124.607 32.6939C124.776 32.602 124.973 32.5745 125.161 32.6162M99.3732 25.075C99.4336 25.2902 99.5362 25.4911 99.6751 25.6663C99.8094 25.8382 99.9609 25.996 100.127 26.1373L100.73 26.5131C100.85 26.5565 100.968 26.6076 101.082 26.6659C101.195 26.726 101.313 26.7775 101.434 26.82C101.639 26.9294 101.859 27.0099 102.086 27.0593C102.335 27.1148 102.585 27.1566 102.838 27.1845C102.904 26.8375 102.956 26.5933 102.988 26.4542C102.987 26.3343 102.996 26.2145 103.013 26.0959C103.03 25.994 103.037 25.891 103.037 25.7878C103.072 25.6785 103.09 25.5643 103.089 25.4496V25.1188C103.108 24.7457 103.039 24.3732 102.888 24.0315C102.818 23.8981 102.734 23.7721 102.638 23.6557C102.549 23.5698 102.447 23.4987 102.336 23.4453C102.03 23.3352 101.701 23.3105 101.382 23.3739C101.297 23.3877 101.214 23.4082 101.132 23.4352C101.034 23.4652 100.933 23.4874 100.831 23.5016V23.553L100.78 23.5605L100.73 23.5668L100.678 23.573C100.639 23.5826 100.604 23.6056 100.579 23.6382C100.527 23.6444 100.475 23.6601 100.428 23.6845C100.399 23.7064 100.365 23.7203 100.329 23.7246C100.029 23.8834 99.7719 24.1109 99.5773 24.3885C99.4826 24.491 99.4291 24.6248 99.427 24.7643C99.3888 24.8633 99.3713 24.969 99.3757 25.075" fill="#11361F"/>
<path d="M135.594 57.2965C135.361 57.7688 135.124 58.2335 134.889 58.6895C134.655 59.1455 134.403 59.6102 134.138 60.0888C133.872 60.5673 133.592 61.0345 133.307 61.498C133.023 61.9615 132.714 62.4188 132.378 62.876C132.214 63.1294 132.038 63.3744 131.85 63.6101C131.666 63.8368 131.49 64.0648 131.323 64.2928C131.122 64.5224 130.921 64.7534 130.721 64.9855C130.52 65.2177 130.302 65.4511 130.067 65.6858C129.832 65.887 129.589 66.0987 129.339 66.3209C129.088 66.5401 128.828 66.7543 128.558 66.9623L128.459 67.0262L128.358 67.1427C128.313 67.1755 128.262 67.1997 128.208 67.2141C128.168 67.2229 128.133 67.2461 128.109 67.2792C128.042 67.355 127.955 67.4109 127.858 67.4408C127.761 67.4688 127.674 67.5245 127.608 67.6011C127.44 67.6926 127.271 67.7753 127.107 67.8517C126.942 67.9281 126.771 68.007 126.605 68.1022C126.23 68.2275 125.885 68.3289 125.549 68.4279C125.205 68.526 124.851 68.5836 124.493 68.5995C123.792 68.7025 123.078 68.6817 122.384 68.5382C121.688 68.4196 121.022 68.1678 120.422 67.7966C119.784 67.4098 119.25 66.8742 118.864 66.2357C118.632 65.9351 118.446 65.6021 118.311 65.2473C118.179 64.8986 118.078 64.5389 118.008 64.1725C117.906 63.4447 117.924 62.7051 118.06 61.9828C118.137 61.3137 118.306 60.6583 118.561 60.0349C118.79 59.4394 119.058 58.8598 119.364 58.2999C119.426 58.1642 119.502 58.0349 119.59 57.9141C119.678 57.7926 119.754 57.6625 119.816 57.5258C119.907 57.4015 119.991 57.2718 120.066 57.1374L120.165 56.9721L120.217 56.8618L120.267 56.8042L120.317 56.7967C120.417 56.6489 120.511 56.5174 120.595 56.4021C120.679 56.2869 120.769 56.1591 120.871 56.01C120.971 55.8935 121.072 55.7795 121.171 55.663C121.264 55.5562 121.365 55.4573 121.474 55.3674C121.856 54.9188 122.275 54.5035 122.727 54.126C122.929 53.9293 123.129 53.7502 123.33 53.5861L123.932 53.0963C124.334 52.7355 124.745 52.3994 125.165 52.0879C125.585 51.7763 125.995 51.4736 126.395 51.1797C126.798 50.8514 127.207 50.5533 127.626 50.2727C128.046 49.9921 128.457 49.7065 128.858 49.4146C129.662 48.8626 130.483 48.3089 131.321 47.7536L133.584 46.2203C133.651 45.9697 133.726 45.7254 133.81 45.4787C133.894 45.2319 133.968 44.9776 134.035 44.7371C134.604 42.8639 135.105 41.0513 135.538 39.2992C135.67 38.9187 135.779 38.531 135.865 38.1379C135.948 37.7546 136.041 37.3688 136.142 36.9829C136.042 37.1997 135.932 37.4114 135.815 37.6093C135.699 37.8072 135.572 38.0076 135.439 38.1943C135.124 38.741 134.771 39.2651 134.383 39.7627C134.183 39.9919 133.981 40.2337 133.781 40.4804C133.566 40.743 133.331 40.9876 133.077 41.212C132.576 41.7071 132.02 42.1422 131.418 42.5085C131.25 42.6 131.083 42.6827 130.917 42.7591C130.752 42.8355 130.583 42.9157 130.416 43.0096C130.258 43.0908 130.09 43.1482 129.915 43.18C129.862 43.1847 129.811 43.2005 129.765 43.2263C129.718 43.2533 129.667 43.2699 129.613 43.2752L129.463 43.294L129.413 43.3015L129.363 43.309C129.167 43.3699 128.964 43.4065 128.759 43.418C128.557 43.4305 128.355 43.4318 128.156 43.4268C127.988 43.4155 127.797 43.3917 127.578 43.3541C127.358 43.3165 127.152 43.2789 126.951 43.2376C126.785 43.1599 126.607 43.0748 126.424 42.9871C126.241 42.8966 126.065 42.794 125.896 42.6802C125.577 42.4353 125.29 42.1517 125.041 41.8359C124.817 41.5475 124.632 41.2318 124.488 40.8963C124.421 40.7372 124.363 40.5844 124.313 40.4391C124.263 40.2938 124.203 40.1435 124.138 39.9831C123.956 39.3526 123.838 38.7055 123.786 38.0515C123.752 37.7503 123.736 37.4475 123.736 37.1445V36.2313C123.736 35.9269 123.743 35.62 123.761 35.3144C123.778 35.0087 123.803 34.7168 123.836 34.4375C123.902 33.8529 123.994 33.2645 124.111 32.6724C124.229 32.0803 124.372 31.4853 124.539 30.8874C124.706 30.2886 124.874 29.7086 125.04 29.1436C125.205 28.5787 125.415 28.0162 125.643 27.4362C125.847 26.8579 126.082 26.2912 126.347 25.7388C126.615 25.1768 126.884 24.6231 127.152 24.0777C127.771 22.9003 128.494 21.7806 129.313 20.7318C129.714 20.2357 130.166 19.7159 130.669 19.1722C131.149 18.6324 131.689 18.1487 132.278 17.7304C132.579 17.4855 132.898 17.2631 133.232 17.0652C133.566 16.8664 133.918 16.6577 134.288 16.4389C135.02 16.0745 135.798 15.8128 136.601 15.6609C137.413 15.5123 138.238 15.4481 139.063 15.4693C139.813 15.5487 140.554 15.7005 141.274 15.9227C141.608 16.0455 141.935 16.1779 142.255 16.3198C142.558 16.453 142.851 16.6066 143.132 16.7796C143.3 16.8923 143.442 16.9913 143.561 17.0752C143.68 17.1591 143.802 17.2443 143.936 17.3258C144.079 17.4126 144.214 17.5124 144.339 17.6239L144.489 17.7567L144.689 17.8819C145.031 18.1562 145.308 18.5033 145.5 18.8978C145.691 19.2924 145.792 19.7246 145.795 20.1631C145.825 21.1163 145.503 22.0471 144.89 22.7775C144.272 23.5156 143.42 24.0193 142.476 24.2043C142.047 24.3021 141.602 24.2992 141.175 24.1957C140.748 24.0923 140.35 23.8911 140.014 23.608L139.813 23.4339L139.761 23.3412L139.712 23.2961L139.611 23.2071L139.41 23.0343C139.343 22.9766 139.275 22.9178 139.209 22.8589L139.007 22.6848C138.873 22.6033 138.747 22.5181 138.631 22.4342C138.387 22.2962 138.136 22.1707 137.88 22.0584C137.766 22.0291 137.656 21.9871 137.551 21.9331C137.417 21.9181 137.301 21.9093 137.198 21.9043C137.081 21.9032 136.964 21.9112 136.847 21.9281C136.59 21.9353 136.335 21.9883 136.096 22.0847C135.801 22.2033 135.515 22.3444 135.241 22.5069C134.91 22.7065 134.598 22.9372 134.311 23.1959C133.992 23.4773 133.682 23.7738 133.381 24.0853C132.723 24.7843 132.136 25.5467 131.627 26.3614C131.359 26.7723 131.108 27.1898 130.876 27.6141C130.644 28.0383 130.409 28.4855 130.172 28.9557C129.937 29.3942 129.72 29.8476 129.519 30.3161C129.318 30.7834 129.133 31.2494 128.966 31.7129C128.799 32.2089 128.648 32.6866 128.515 33.146C128.379 33.6044 128.264 34.0767 128.161 34.5665C127.965 35.4632 127.864 36.3782 127.861 37.2961V37.9062C127.86 38.1087 127.893 38.3099 127.96 38.5012C127.994 38.8053 128.079 39.1016 128.21 39.3781C128.249 39.4744 128.32 39.5541 128.412 39.6036C128.425 39.6488 128.452 39.6894 128.487 39.7204C128.523 39.7514 128.567 39.7717 128.614 39.7789C128.648 39.8079 128.688 39.8288 128.731 39.8401C128.775 39.8514 128.82 39.8528 128.864 39.8441C128.992 39.8938 129.13 39.9102 129.266 39.8917L129.318 39.8842L129.369 39.8779L129.419 39.8704L129.519 39.8566L129.72 39.829C129.807 39.7857 129.9 39.7558 129.996 39.7401C130.075 39.717 130.147 39.6763 130.207 39.6211C130.374 39.5317 130.55 39.4315 130.734 39.3205C130.918 39.2102 131.11 39.09 131.312 38.9609C131.478 38.8357 131.656 38.6929 131.839 38.5325C132.026 38.3679 132.202 38.1913 132.367 38.0039L132.868 37.4239C133.036 37.2322 133.203 37.0418 133.369 36.8464C134.026 36.0084 134.631 35.1298 135.178 34.2157C135.446 33.7389 135.705 33.2708 135.957 32.8115C136.208 32.3522 136.468 31.8682 136.736 31.3596C136.87 31.1091 136.997 30.8585 137.112 30.623C137.227 30.3875 137.34 30.142 137.44 29.8902C137.506 29.7474 137.565 29.6184 137.615 29.5144C137.665 29.4104 137.724 29.2814 137.792 29.1386L137.941 28.7628L138.041 28.5974L138.091 28.387L138.193 28.1703C138.423 27.2303 138.974 26.3999 139.75 25.8215C140.485 25.2237 141.421 24.9301 142.366 25.001C142.809 25.0153 143.243 25.1348 143.632 25.3495C144.021 25.5642 144.353 25.8681 144.602 26.2361C144.859 26.6115 145.035 27.0367 145.117 27.4843C145.199 27.9319 145.187 28.3918 145.08 28.8342C145.081 28.8415 145.08 28.8489 145.078 28.856C145.076 28.863 145.072 28.8695 145.068 28.8751C145.063 28.8806 145.057 28.8851 145.05 28.8882C145.043 28.8913 145.036 28.893 145.029 28.8931L144.878 29.6246L144.728 30.355C144.66 30.6055 144.603 30.8385 144.553 31.0652C144.503 31.292 144.444 31.5287 144.377 31.7755C144.244 32.2691 144.118 32.7518 144.002 33.2236C143.885 33.6955 143.759 34.1778 143.626 34.6705C143.357 35.5891 143.106 36.4781 142.874 37.3374C142.642 38.1968 142.391 39.0866 142.123 40.0069C142.281 39.8552 142.448 39.7129 142.624 39.581C142.799 39.4488 142.966 39.3066 143.125 39.1551C143.493 38.8336 143.861 38.5112 144.23 38.188L145.336 37.2235C145.697 36.9086 146.042 36.574 146.367 36.2213C146.684 35.8722 147.01 35.5219 147.346 35.1703C148.014 34.468 148.651 33.7364 149.257 32.9756C149.567 32.62 149.853 32.2433 150.111 31.8482C150.383 31.5074 150.634 31.1501 150.863 30.7784C151.197 30.2585 151.432 29.9015 151.567 29.7161V29.6647C151.663 29.5197 151.805 29.4109 151.97 29.3553C152.135 29.2996 152.315 29.3109 152.471 29.3866C152.539 29.4214 152.599 29.4703 152.647 29.53C152.695 29.5898 152.73 29.6592 152.749 29.7334C152.768 29.8076 152.771 29.885 152.757 29.9604C152.744 30.0359 152.715 30.1076 152.671 30.1708C152.536 30.454 152.385 30.7296 152.219 30.9963C152.019 31.3304 151.818 31.6715 151.617 32.0198C151.416 32.368 151.215 32.7025 151.014 33.0157C150.814 33.3288 150.646 33.5994 150.513 33.8212C150.245 34.2646 149.96 34.6934 149.657 35.1077L148.753 36.3503C148.417 36.7687 148.092 37.1696 147.772 37.5517C147.453 37.9337 147.111 38.3221 146.742 38.7116C146.074 39.4816 145.387 40.2199 144.681 40.9264C144.012 41.5945 143.334 42.2384 142.646 42.858C141.958 43.4777 141.279 44.1041 140.611 44.7371L140.158 46.0186C139.991 46.5196 139.824 46.9911 139.657 47.4329C139.491 47.8801 139.321 48.3511 139.156 48.8484C138.786 49.8506 138.417 50.7988 138.05 51.6933C137.682 52.6244 137.297 53.5573 136.895 54.4918C136.493 55.4263 136.06 56.3612 135.594 57.2965ZM130.266 55.3498C130.668 54.4805 131.02 53.6195 131.322 52.7668C131.387 52.6565 131.438 52.5382 131.473 52.4148C131.506 52.2912 131.557 52.173 131.624 52.064C131.501 52.1403 131.384 52.224 131.272 52.3146C131.159 52.4046 131.041 52.4883 130.918 52.5651C130.55 52.8867 130.182 53.2002 129.814 53.5059C129.445 53.8116 129.077 54.1251 128.709 54.4467C127.937 55.0947 127.217 55.7211 126.548 56.3257C126.214 56.643 125.904 56.9646 125.618 57.2903C125.333 57.616 125.055 57.9341 124.787 58.2448L124.585 58.4753C124.518 58.5517 124.451 58.6269 124.384 58.7058C124.266 58.8303 124.18 58.9816 124.134 59.1467L123.932 59.376C123.913 59.4251 123.887 59.4718 123.857 59.515C123.826 59.5572 123.801 59.6031 123.782 59.6516C123.716 59.824 123.632 59.989 123.531 60.1439C123.398 60.432 123.263 60.7552 123.128 61.1135C123.068 61.2667 123.026 61.4265 123.003 61.5895C122.988 61.7134 122.963 61.8358 122.928 61.9553C122.918 62.1566 122.934 62.3584 122.978 62.5553C122.972 62.6327 122.99 62.7099 123.029 62.777C123.066 62.8288 123.099 62.8833 123.128 62.9399C123.217 63.0255 123.319 63.0973 123.43 63.1528C123.585 63.243 123.754 63.3053 123.931 63.337C124.132 63.3486 124.335 63.3373 124.534 63.3032C124.758 63.2639 124.977 63.1996 125.187 63.1115L125.488 62.9161C125.545 62.9107 125.599 62.886 125.64 62.8459L125.69 62.7871L125.741 62.7795V62.7282C125.872 62.6443 125.99 62.5427 126.093 62.4263C126.203 62.3016 126.32 62.1836 126.444 62.073C126.712 61.7987 126.956 61.5016 127.173 61.1849C127.391 60.8675 127.618 60.5234 127.853 60.1527C128.086 59.7768 128.305 59.401 128.507 59.0252C128.709 58.6494 128.924 58.2473 129.16 57.8427C129.361 57.4427 129.553 57.0355 129.737 56.6213C129.921 56.2071 130.097 55.785 130.265 55.3549" fill="#11361F"/>
<path d="M179.345 29.3905L178.439 30.6331L177.533 31.8758C176.897 32.6742 176.243 33.4675 175.573 34.2559C174.902 35.0443 174.182 35.8126 173.413 36.5608C173.037 36.9504 172.662 37.3237 172.286 37.682C171.91 38.0403 171.49 38.4023 171.056 38.7681C170.242 39.4955 169.387 40.174 168.493 40.7999C167.589 41.4984 166.63 42.1234 165.627 42.6689L164.822 43.0873C164.561 43.2223 164.292 43.3439 164.018 43.4519C163.749 43.5571 163.473 43.6548 163.189 43.7437C162.904 43.8327 162.61 43.9354 162.312 44.0444C162.036 44.1511 161.749 44.2247 161.456 44.2636C161.156 44.307 160.854 44.3488 160.551 44.3889C159.919 44.4845 159.278 44.506 158.642 44.4528C157.99 44.4485 157.343 44.3319 156.731 44.1083C156.405 44.0238 156.086 43.9153 155.775 43.7838C155.475 43.6577 155.173 43.5137 154.87 43.3517C154.298 43.0231 153.773 42.6176 153.311 42.1466C153.079 41.912 152.861 41.6635 152.659 41.4025C152.457 41.1419 152.273 40.8901 152.105 40.6408C151.933 40.3871 151.782 40.1198 151.654 39.8416C151.521 39.56 151.403 39.2715 151.301 38.9773C151.102 38.4024 150.951 37.812 150.849 37.2122C150.716 36.6564 150.64 36.0885 150.623 35.5173C150.606 34.9461 150.615 34.3695 150.648 33.7874C150.682 33.2053 150.74 32.6391 150.824 32.0887C150.907 31.5363 151.018 30.9964 151.15 30.4703C151.694 28.346 152.487 26.2935 153.513 24.3559C153.747 23.8548 153.998 23.3675 154.265 22.9065C154.531 22.4455 154.818 21.9921 155.119 21.5436C155.42 21.0952 155.722 20.658 156.025 20.2258C156.336 19.7814 156.671 19.3537 157.027 18.9443C157.199 18.7132 157.384 18.4924 157.582 18.2829C157.783 18.0687 157.966 17.8657 158.135 17.6728C158.336 17.4761 158.538 17.287 158.737 17.1066C158.936 16.9262 159.14 16.7383 159.339 16.5404C159.775 16.1429 160.22 15.767 160.672 15.413C161.131 15.058 161.61 14.7288 162.105 14.4271C162.541 14.164 163.061 13.8717 163.664 13.5502C163.932 13.4462 164.209 13.3385 164.494 13.232C164.78 13.1255 165.072 13.0166 165.371 12.9063C165.674 12.7986 165.985 12.7148 166.302 12.6558C166.624 12.5948 166.954 12.5742 167.281 12.5944C167.616 12.5831 167.96 12.5869 168.311 12.6032C168.679 12.6269 169.042 12.6959 169.393 12.8086C170.113 13.0144 170.781 13.3715 171.351 13.8559C171.948 14.3178 172.43 14.9105 172.761 15.5883C173.075 16.2005 173.311 16.85 173.463 17.5212C173.562 18.1849 173.612 18.8547 173.615 19.5255C173.615 20.1612 173.565 20.7958 173.463 21.4234C173.397 21.7378 173.321 22.0497 173.238 22.3453C173.155 22.641 173.079 22.9328 173.012 23.2134C172.809 23.8164 172.583 24.406 172.333 24.9822C172.073 25.5759 171.762 26.1459 171.404 26.6859C171.078 27.2687 170.69 27.8146 170.248 28.3144C169.829 28.8996 169.322 29.416 168.744 29.8452C168.476 30.0849 168.174 30.3295 167.839 30.5793C167.749 30.6126 167.665 30.6586 167.588 30.7158L167.437 30.7872C167.412 30.82 167.376 30.843 167.336 30.8523C167.206 30.9288 167.072 30.9986 166.934 31.0615C166.421 31.3384 165.882 31.5657 165.326 31.7405C164.215 32.1617 163.045 32.4098 161.858 32.4758L160.954 32.4508C160.811 32.4433 160.668 32.4287 160.526 32.4069C160.382 32.3856 160.24 32.355 160.1 32.3155C159.54 32.2126 158.998 32.0317 158.489 31.7781C158.358 31.7312 158.233 31.6725 158.113 31.6027C157.996 31.5361 157.887 31.4576 157.786 31.3684C157.674 31.3154 157.572 31.2438 157.484 31.1567C157.358 31.0867 157.24 31.0027 157.132 30.9062C156.964 30.7246 156.796 30.5454 156.631 30.3663C156.466 30.1872 156.295 29.9905 156.13 29.7763C156.115 29.765 156.103 29.7506 156.095 29.7342C156.086 29.7177 156.082 29.6996 156.081 29.6811C156.08 29.6628 156.075 29.645 156.066 29.629C156.057 29.613 156.045 29.5991 156.03 29.5884V30.3989C156.028 30.811 156.053 31.2228 156.106 31.6315C156.156 32.0136 156.214 32.3831 156.281 32.7502C156.346 33.1074 156.439 33.4592 156.557 33.8024C156.666 34.1214 156.792 34.4346 156.933 34.7407C157.132 35.2649 157.441 35.7409 157.837 36.1374C157.978 36.3249 158.147 36.4897 158.338 36.626C158.505 36.7379 158.69 36.8477 158.891 36.9554C159.067 37.0726 159.263 37.1575 159.47 37.206C159.71 37.2632 159.953 37.305 160.199 37.3312C160.479 37.3965 160.765 37.4331 161.053 37.4402C161.355 37.449 161.689 37.4615 162.055 37.4791C162.223 37.4553 162.4 37.439 162.583 37.4302C162.765 37.4214 162.943 37.4051 163.11 37.3813C163.485 37.3973 163.86 37.345 164.216 37.2273C165.036 37.0774 165.843 36.8634 166.63 36.5871C167.032 36.4301 167.434 36.2564 167.836 36.066C168.239 35.8756 168.641 35.6668 169.041 35.4397C169.445 35.2155 169.837 34.9724 170.224 34.7169C170.611 34.4613 170.987 34.2058 171.351 33.949C172.123 33.4036 172.886 32.8245 173.64 32.2115C174.394 31.5985 175.123 30.9551 175.826 30.2811C175.994 30.1245 176.17 29.9642 176.355 29.8013C176.543 29.6373 176.719 29.4602 176.882 29.2714C177.047 29.1149 177.225 28.9382 177.409 28.7428C177.593 28.5474 177.769 28.3557 177.937 28.1616C178.105 27.9674 178.355 27.7081 178.688 27.3724C179.022 27.0367 179.272 26.7761 179.44 26.5819C179.596 26.3967 179.763 26.2214 179.941 26.057L180.141 25.7739L180.392 25.4858C180.445 25.3997 180.515 25.3256 180.599 25.2682C180.682 25.2109 180.777 25.1716 180.876 25.1528C180.975 25.1341 181.078 25.1363 181.176 25.1594C181.275 25.1824 181.367 25.2257 181.448 25.2866C181.519 25.3414 181.578 25.4099 181.621 25.488C181.665 25.5662 181.692 25.6523 181.701 25.7413C181.711 25.8302 181.702 25.9202 181.676 26.0056C181.649 26.0911 181.606 26.1704 181.548 26.2387L181.448 26.4028L181.348 26.5681L181.097 26.9089C181.03 27.0204 180.963 27.1218 180.897 27.2158C180.83 27.3097 180.762 27.4125 180.695 27.5214C180.56 27.7432 180.343 28.0526 180.041 28.4509C179.739 28.8493 179.505 29.16 179.338 29.3854M157.621 22.8151C157.419 23.2176 157.243 23.6322 157.093 24.0565C156.943 24.4837 156.799 24.9096 156.666 25.3342C156.417 26.1162 156.249 26.9217 156.165 27.7382L156.216 27.7833C156.618 27.9987 157.004 28.1816 157.373 28.3344C157.738 28.498 158.129 28.5976 158.529 28.6288C158.568 28.6474 158.611 28.6584 158.654 28.6614C158.697 28.6661 158.739 28.677 158.779 28.694C158.829 28.6831 158.88 28.6831 158.93 28.694C158.978 28.7085 159.03 28.7106 159.08 28.7002C159.171 28.7192 159.265 28.7226 159.357 28.7102C159.449 28.6995 159.543 28.7037 159.634 28.7228C160.363 28.692 161.08 28.5219 161.746 28.2217C162.08 28.0739 162.407 27.911 162.727 27.7294C163.046 27.5477 163.372 27.3536 163.707 27.1356C163.874 27.012 164.034 26.8867 164.186 26.7598C164.336 26.6345 164.495 26.5093 164.663 26.384C164.692 26.3496 164.726 26.3192 164.763 26.2938C164.801 26.2686 164.834 26.2387 164.864 26.2049L164.914 26.1472L164.965 26.0884C165.018 26.0594 165.061 26.016 165.09 25.9631C165.126 25.9025 165.168 25.8458 165.216 25.794C165.299 25.6967 165.375 25.5932 165.442 25.4846C165.525 25.3593 165.6 25.234 165.668 25.1225C165.876 24.8458 166.029 24.5321 166.12 24.1981C166.29 23.8996 166.425 23.5827 166.523 23.2535C166.624 22.9178 166.706 22.5771 166.774 22.2301C166.807 22.056 166.84 21.8894 166.874 21.729C166.907 21.5678 166.924 21.4037 166.924 21.2392C166.955 21.0869 166.971 20.9322 166.974 20.777V20.3197C167.006 20.1771 167.015 20.0304 166.999 19.8851C166.982 19.7606 166.973 19.635 166.974 19.5092C166.975 19.3911 166.967 19.273 166.951 19.156C166.935 19.0733 166.927 18.9895 166.926 18.9055C166.894 18.8178 166.877 18.7255 166.875 18.6324C166.876 18.5558 166.859 18.4802 166.824 18.4119C166.81 18.2727 166.758 18.1401 166.674 18.0286C166.602 17.9652 166.535 17.8979 166.471 17.8269C166.388 17.7412 166.285 17.6771 166.171 17.6402C165.907 17.4924 165.616 17.3952 165.316 17.3534C165.144 17.3082 164.966 17.2901 164.789 17.2995C164.613 17.3085 164.437 17.3085 164.261 17.2995C163.887 17.2839 163.512 17.3357 163.156 17.4523C162.353 17.6777 161.602 18.0582 160.945 18.5722C160.579 18.8347 160.243 19.1372 159.943 19.4742C159.642 19.7873 159.358 20.1143 159.089 20.4575C158.527 21.1854 158.039 21.9672 157.632 22.7913" fill="#11361F"/>
<path d="M206.233 21.4786C206.667 21.6552 206.769 21.9621 206.535 22.4018V22.4519C206.132 23.2537 205.73 24.047 205.328 24.832C204.927 25.6171 204.524 26.3929 204.119 27.1595C203.686 27.9638 203.243 28.753 202.814 29.5221C202.386 30.2913 201.926 31.0692 201.456 31.8421C201.39 31.9548 201.331 32.055 201.281 32.1477C201.232 32.2374 201.174 32.3215 201.107 32.3983C201.038 32.511 200.973 32.6125 200.905 32.7052C200.837 32.7979 200.77 32.9019 200.705 33.0108C200.569 33.2012 200.444 33.3866 200.329 33.572C200.201 33.772 200.058 33.9617 199.9 34.1395C199.765 34.3287 199.624 34.5078 199.473 34.6819C199.323 34.856 199.164 35.0377 198.996 35.2306C198.701 35.6368 198.345 35.9948 197.94 36.2916C197.566 36.6973 197.123 37.0336 196.632 37.285C196.365 37.4477 196.078 37.5741 195.778 37.6608C195.456 37.7728 195.116 37.82 194.776 37.7999C194.436 37.789 194.099 37.7339 193.773 37.6358C193.455 37.5669 193.16 37.4157 192.918 37.1973C192.684 37.0265 192.466 36.8358 192.265 36.6273C192.204 36.5103 192.129 36.4017 192.04 36.3042C191.951 36.2063 191.875 36.0972 191.814 35.9797C191.558 35.5606 191.355 35.1112 191.209 34.6418C191.143 34.4147 191.076 34.1959 191.008 33.9854C190.941 33.7737 190.873 33.5382 190.807 33.2764C190.742 33.0588 190.7 32.835 190.682 32.6087C190.667 32.392 190.64 32.1665 190.608 31.936L190.458 30.5856C190.358 28.7678 190.409 26.9448 190.608 25.1352C190.742 24.1013 190.942 22.9898 191.21 21.8005C190.518 21.9991 189.813 22.1482 189.1 22.2465C188.008 22.4661 186.896 22.5699 185.783 22.5559C184.941 22.5193 184.101 22.4327 183.27 22.2966C183.24 22.3306 183.214 22.368 183.193 22.4081C183.174 22.4495 183.149 22.4879 183.119 22.5221C182.948 22.9963 182.729 23.4518 182.465 23.8812C182.369 24.1226 182.26 24.3584 182.138 24.5878C182.022 24.8074 181.896 25.0279 181.763 25.2492C181.662 25.4646 181.552 25.6826 181.436 25.9018C181.319 26.1211 181.193 26.3415 181.06 26.5633C180.994 26.676 180.926 26.785 180.858 26.8965C180.791 27.008 180.725 27.1182 180.657 27.2297C180.539 27.461 180.405 27.6833 180.254 27.8949C180.222 27.966 180.174 28.0283 180.112 28.0765C180.051 28.1247 179.979 28.1574 179.902 28.1717C179.754 28.2133 179.596 28.209 179.45 28.1592C179.334 28.0695 179.251 27.9437 179.215 27.8016C179.179 27.6595 179.191 27.5093 179.25 27.375C179.379 27.1625 179.496 26.9429 179.601 26.7173L179.902 26.0672C180.003 25.848 180.11 25.63 180.229 25.4108C180.348 25.1916 180.456 24.9748 180.558 24.7581C180.657 24.5076 180.757 24.2733 180.858 24.0554C180.96 23.8387 181.06 23.6207 181.16 23.404C181.362 22.9367 181.545 22.487 181.713 22.0586C181.742 22.0306 181.761 21.9927 181.764 21.9521C181.329 21.7755 180.887 21.5763 180.457 21.3721C180.013 21.1543 179.593 20.8893 179.205 20.5817C178.693 20.2367 178.25 19.7996 177.898 19.2926C177.485 18.7548 177.178 18.143 176.994 17.49C176.791 16.7882 176.739 16.0512 176.842 15.3279C176.914 14.5268 177.153 13.7499 177.546 13.048C177.677 12.8911 177.795 12.7235 177.898 12.5469C177.96 12.4742 178.028 12.406 178.1 12.3427C178.171 12.2775 178.238 12.2081 178.302 12.1348C178.427 11.9895 178.561 11.8523 178.704 11.7239C178.839 11.5986 178.989 11.4809 179.157 11.3569C179.435 11.1564 179.74 10.9946 180.062 10.8758L180.967 10.5451L181.418 10.4837L181.62 10.4562L181.67 10.4487L181.72 10.4412L181.82 10.4286L182.224 10.3723C182.374 10.3529 182.525 10.3487 182.676 10.3597C182.809 10.3754 182.944 10.3821 183.078 10.3798C183.231 10.381 183.383 10.4021 183.53 10.4424C183.676 10.4799 183.819 10.5281 183.957 10.5865C184.075 10.6391 184.217 10.703 184.385 10.7806C184.513 10.8602 184.632 10.9549 184.738 11.0625C184.838 11.1677 184.938 11.2817 185.038 11.4007C185.132 11.5137 185.208 11.6405 185.264 11.7765C185.315 11.9051 185.373 12.0492 185.439 12.2087C185.504 12.3296 185.546 12.4611 185.565 12.597C185.58 12.7307 185.606 12.863 185.641 12.9929C185.639 13.136 185.646 13.2792 185.664 13.4213C185.682 13.5457 185.691 13.6714 185.69 13.7971C185.692 13.9429 185.683 14.0886 185.664 14.233C185.647 14.3602 185.64 14.4882 185.641 14.6164C185.608 14.7427 185.59 14.8727 185.588 15.0034C185.587 15.1341 185.57 15.2641 185.537 15.3905C185.506 15.5321 185.454 15.7751 185.388 16.1221L186.39 15.983C187.96 15.7505 189.496 15.3299 190.965 14.7304C191.376 14.6049 191.779 14.4556 192.173 14.2832C192.574 14.1094 192.976 13.9424 193.379 13.7821C193.781 13.5917 194.173 13.4063 194.56 13.2121C194.947 13.0179 195.354 12.8363 195.79 12.6346L196.947 12.22C197.34 12.0579 197.765 11.9841 198.191 12.0038C198.616 12.0235 199.032 12.1362 199.409 12.334C199.783 12.5234 200.108 12.7955 200.361 13.1295C200.614 13.4636 200.787 13.8508 200.867 14.2619C201 14.8848 200.957 15.5325 200.742 16.1321C200.534 16.7385 200.18 17.2846 199.712 17.723C199.226 18.2122 198.773 18.7327 198.355 19.2814C198.154 19.5808 197.952 19.8864 197.752 20.2034C197.552 20.5203 197.367 20.841 197.198 21.1679C196.457 22.5698 195.835 24.0314 195.338 25.5373C195.238 25.9244 195.138 26.3027 195.037 26.6647C194.937 27.0267 194.834 27.4163 194.736 27.7921C194.702 27.9663 194.669 28.1567 194.635 28.3646C194.601 28.5726 194.568 28.7642 194.536 28.9358C194.5 29.1242 194.475 29.3145 194.46 29.5058C194.445 29.6962 194.42 29.8856 194.385 30.0733C194.319 30.4455 194.286 30.8227 194.286 31.2007V32.3168C194.318 32.4819 194.335 32.6497 194.336 32.8179C194.336 32.9862 194.353 33.1541 194.386 33.319C194.421 33.6231 194.505 33.9194 194.637 34.1959C194.706 34.4002 194.808 34.5918 194.938 34.7633C194.976 34.8333 195.028 34.8954 195.089 34.9462C195.121 34.9738 195.148 34.9888 195.164 34.9863C195.18 34.9838 195.207 34.9989 195.239 35.0264C195.273 35.0211 195.308 35.0254 195.339 35.0389C195.371 35.051 195.406 35.0544 195.44 35.049C195.5 35.0416 195.559 35.0251 195.615 35.0001C195.67 34.9733 195.729 34.9559 195.79 34.9487C195.932 34.893 196.067 34.8229 196.194 34.7395C196.326 34.6544 196.477 34.5667 196.645 34.4727C196.979 34.2719 197.284 34.0248 197.549 33.7386C197.859 33.4885 198.145 33.2109 198.405 32.9094L199.259 31.926C199.331 31.8466 199.399 31.7629 199.461 31.6755C199.528 31.5815 199.596 31.4976 199.662 31.4174C199.784 31.2372 199.919 31.0664 200.066 30.9063C201.104 29.5233 202.044 28.0696 202.879 26.5557C203.114 26.1858 203.332 25.8171 203.533 25.4496C203.734 25.0822 203.935 24.6988 204.134 24.2996C204.337 23.9 204.538 23.5079 204.738 23.1259C204.939 22.7438 205.124 22.353 205.292 21.9571C205.366 21.7723 205.511 21.6245 205.694 21.5462C205.864 21.4555 206.06 21.428 206.248 21.4686M180.444 13.9524C180.504 14.1674 180.606 14.3683 180.744 14.5437C180.88 14.7147 181.032 14.872 181.198 15.0135L181.799 15.3893C181.92 15.4326 182.037 15.4841 182.151 15.5434C182.265 15.6022 182.383 15.6533 182.504 15.6962C182.709 15.8071 182.929 15.8877 183.157 15.9354C183.405 15.991 183.656 16.0328 183.909 16.0607C183.974 15.7137 184.026 15.4694 184.059 15.3291C184.058 15.2093 184.066 15.0896 184.083 14.9709C184.099 14.869 184.107 14.7659 184.108 14.6627C184.142 14.5537 184.159 14.44 184.159 14.3257V13.995C184.178 13.6214 184.109 13.2486 183.957 12.9064C183.887 12.7732 183.803 12.6473 183.707 12.5306C183.617 12.4458 183.516 12.3749 183.405 12.3202C183.099 12.2106 182.769 12.1863 182.45 12.25C182.365 12.2635 182.282 12.2836 182.2 12.3102C182.101 12.3407 182 12.3633 181.898 12.3778V12.4292L181.848 12.4354L181.797 12.4417L181.746 12.4492C181.706 12.458 181.671 12.4812 181.646 12.5144C181.593 12.5198 181.542 12.5356 181.495 12.5607C181.466 12.5823 181.432 12.5961 181.396 12.6008C181.096 12.7595 180.839 12.9865 180.644 13.2635C180.549 13.3659 180.496 13.4998 180.494 13.6393C180.457 13.7389 180.44 13.8462 180.444 13.9524Z" fill="#11361F"/>
<path d="M173.885 69.6706C173.512 70.2935 173.087 70.8836 172.614 71.4343C172.172 72.0248 171.698 72.5993 171.194 73.158C170.672 73.732 170.118 74.2757 169.534 74.7865C169.25 75.0304 168.958 75.2743 168.657 75.5181C168.358 75.7686 168.022 76.0192 167.655 76.2697C166.985 76.75 166.253 77.1392 165.48 77.4272C164.715 77.7842 163.9 78.0212 163.063 78.13L162.761 78.1725L161.854 79.7622C161.113 81.0514 160.284 82.2886 159.375 83.4652C158.897 84.0951 158.382 84.6962 157.833 85.2653C157.288 85.829 156.714 86.3768 156.11 86.9088L155.142 87.6529C154.819 87.9034 154.478 88.154 154.117 88.4045C153.913 88.5139 153.732 88.6104 153.572 88.6939C153.413 88.7774 153.231 88.8734 153.027 88.982C152.67 89.2239 152.284 89.4216 151.879 89.5708C151.698 89.6709 151.505 89.7484 151.305 89.8013C151.124 89.8472 150.932 89.9044 150.731 89.9729C150.528 90.0418 150.328 90.0981 150.129 90.1483C149.93 90.1984 149.724 90.2547 149.522 90.3236L149.22 90.3662L149.04 90.39L148.979 90.3988L148.916 90.4076C148.722 90.4787 148.52 90.527 148.315 90.5516C148.103 90.5402 147.89 90.5494 147.68 90.5792C147.449 90.6098 147.217 90.6215 146.984 90.6142C146.086 90.6139 145.191 90.4917 144.325 90.251C143.883 90.1108 143.457 89.9244 143.055 89.6948C142.656 89.4696 142.272 89.2185 141.906 88.9432C141.187 88.4013 140.59 87.7152 140.152 86.9288C139.93 86.5515 139.728 86.1622 139.548 85.7626C139.38 85.3759 139.239 84.9778 139.126 84.5713C138.868 83.8021 138.686 83.0096 138.583 82.205C138.502 81.8197 138.46 81.4273 138.457 81.0337C138.458 80.6387 138.437 80.244 138.396 79.8512C138.394 78.3218 138.516 76.7948 138.761 75.2851C138.88 74.5335 139.021 73.7919 139.183 73.0603C139.345 72.3288 139.526 71.6022 139.726 70.8807C140.128 69.4818 140.611 68.0508 141.176 66.5877C141.735 65.1384 142.382 63.7244 143.112 62.3536C143.465 61.6267 143.858 60.92 144.289 60.2366C144.712 59.5685 145.186 58.872 145.709 58.1471C145.95 57.7898 146.212 57.448 146.496 57.1236C146.776 56.7996 147.079 56.4727 147.403 56.1428C148.036 55.4268 148.723 54.7601 149.457 54.1485C150.262 53.4431 151.156 52.8463 152.117 52.3734C152.353 52.222 152.605 52.096 152.868 51.9976C153.133 51.9012 153.403 51.7922 153.686 51.6694L154.593 51.3613L155.074 51.2936C155.109 51.2911 155.142 51.276 155.167 51.251C155.211 51.2179 155.264 51.1995 155.319 51.1984L155.444 51.1809L155.501 51.1734C156.32 51.0038 157.171 51.0765 157.949 51.3826C158.669 51.664 159.289 52.1511 159.733 52.7831C160.443 52.5567 161.171 52.3936 161.909 52.2958C162.151 52.3033 162.393 52.2958 162.634 52.287C162.896 52.2759 163.159 52.2906 163.418 52.3308C163.918 52.4346 164.405 52.5921 164.87 52.8006C165.327 53.0347 165.754 53.3237 166.141 53.6612C166.45 54.0065 166.732 54.3751 166.985 54.7636C167.219 55.1208 167.412 55.5037 167.559 55.9048C167.699 56.2865 167.811 56.6785 167.892 57.0773C167.975 57.4723 168.036 57.8506 168.075 58.2122C168.116 58.5942 168.136 58.9781 168.135 59.3622C168.175 60.0856 168.166 60.8109 168.107 61.5331C168.045 62.2538 167.953 62.9678 167.833 63.6752C167.606 65.0756 167.303 66.4627 166.926 67.8304C166.725 68.5511 166.523 69.2401 166.322 69.8973C166.121 70.5545 165.879 71.2285 165.597 71.9191C165.517 72.1697 165.425 72.4202 165.326 72.6595C165.227 72.8987 165.133 73.1443 165.053 73.3986C165.255 73.3297 165.455 73.2733 165.658 73.2232C165.869 73.1703 166.071 73.0912 166.262 72.9877C166.501 72.8712 166.754 72.7472 167.014 72.6119C167.273 72.4766 167.55 72.3238 167.829 72.1622C168.366 71.8371 168.882 71.4794 169.375 71.0911C169.876 70.6961 170.37 70.2819 170.856 69.8484C171.097 69.6129 171.332 69.3762 171.551 69.1407C171.77 68.9052 172.004 68.6709 172.247 68.4342C172.493 68.1915 172.726 67.9351 172.943 67.6663C173.163 67.3907 173.375 67.1389 173.578 66.9059C173.747 66.6952 173.98 66.5449 174.242 66.4775C174.359 66.4509 174.481 66.4537 174.597 66.4856C174.713 66.5175 174.82 66.5775 174.907 66.6603C174.999 66.7253 175.078 66.8084 175.137 66.9045C175.197 67.0006 175.236 67.1079 175.253 67.2197C175.27 67.3315 175.265 67.4456 175.236 67.5551C175.208 67.6645 175.158 67.7671 175.089 67.8567C174.886 68.169 174.684 68.4717 174.485 68.7649C174.285 69.058 174.084 69.3603 173.881 69.6718M157.863 79.5881C158.276 79.1114 158.659 78.6094 159.01 78.0849C159.019 78.0849 159.028 78.0831 159.036 78.0796C159.044 78.076 159.051 78.0708 159.057 78.0643C159.062 78.0578 159.067 78.0501 159.069 78.0418C159.072 78.0334 159.073 78.0246 159.072 78.016C158.896 77.972 158.725 77.9146 158.558 77.8443C158.392 77.7747 158.221 77.7173 158.047 77.6727C157.642 77.5262 157.259 77.3646 156.896 77.1904C156.543 77.0235 156.2 76.837 155.869 76.6317C154.593 75.7253 153.49 74.5976 152.612 73.3021C152.476 73.1686 152.355 73.0217 152.249 72.8637L152.188 72.6908L152.128 72.6983V72.573C152.091 72.5424 152.061 72.505 152.038 72.4628C152.014 72.4214 151.984 72.3842 151.949 72.3526C151.866 72.1597 151.775 71.9705 151.675 71.7801C151.574 71.5897 151.484 71.4043 151.403 71.2076C151.084 70.4535 150.841 69.6697 150.677 68.8676C150.509 68.0352 150.429 67.1875 150.438 66.3384V65.6118C150.401 65.6515 150.369 65.6967 150.345 65.7459C150.323 65.7954 150.292 65.8411 150.255 65.8812C149.578 66.8984 148.973 67.9616 148.444 69.063C147.359 71.1982 146.507 73.4443 145.905 75.7624C145.779 76.3486 145.672 76.9136 145.571 77.4573C145.469 78.011 145.398 78.5702 145.361 79.1321C145.233 80.1029 145.253 81.0873 145.42 82.0521C145.47 82.4571 145.572 82.854 145.722 83.2334C145.803 83.3837 145.881 83.5265 145.964 83.6568C146.046 83.7871 146.124 83.9074 146.205 84.0201L146.537 84.3095C146.654 84.4064 146.787 84.4811 146.931 84.5299C147.259 84.6673 147.602 84.7632 147.954 84.8156C148.172 84.8628 148.397 84.873 148.618 84.8456C148.718 84.8267 148.822 84.8332 148.919 84.8644L149.101 84.8394L149.284 84.8131L150.011 84.7128C150.133 84.6966 150.254 84.6694 150.372 84.6314C150.491 84.5965 150.612 84.5697 150.735 84.5512C151.787 84.2692 152.786 83.8209 153.696 83.2234C154.7 82.5574 155.649 81.8131 156.535 80.9974C156.777 80.7619 157.011 80.5251 157.231 80.2908C157.452 80.0566 157.665 79.8236 157.867 79.5918M161.856 57.3729C161.477 57.4589 161.122 57.6299 160.818 57.8732C160.514 58.1165 160.269 58.4256 160.103 58.7772C159.968 58.9478 159.847 59.1283 159.739 59.3171C159.7 59.4035 159.658 59.5025 159.614 59.6077C159.578 59.7072 159.536 59.8046 159.489 59.8996C159.302 60.3228 159.18 60.7717 159.127 61.2312C159.047 61.6909 158.965 62.1294 158.886 62.5465C158.803 62.9782 158.742 63.4139 158.703 63.8518C158.661 64.0785 158.631 64.3072 158.613 64.537C158.592 64.7876 158.583 65.0093 158.583 65.211C158.543 65.4236 158.534 65.6408 158.554 65.8561C158.573 66.0778 158.583 66.3096 158.583 66.5539C158.625 66.7601 158.645 66.9699 158.644 67.1802C158.647 67.414 158.69 67.6457 158.77 67.8654C158.779 68.0688 158.821 68.2694 158.895 68.4592V68.6434C158.895 68.6847 158.914 68.7022 158.958 68.696V68.8212C158.989 68.8747 159.008 68.934 159.015 68.9954C159.022 69.0577 159.043 69.1177 159.077 69.1707C159.343 70.0416 159.729 70.871 160.225 71.6348C160.339 71.8121 160.47 71.9771 160.617 72.1271C160.76 72.2724 160.908 72.4327 161.07 72.6144C161.218 72.7509 161.38 72.8715 161.553 72.9739C161.646 73.0362 161.749 73.0839 161.856 73.1155C161.982 72.7735 162.107 72.4403 162.25 72.1133C162.393 71.7863 162.522 71.4569 162.642 71.1111C162.841 70.5161 163.034 69.9073 163.216 69.2935C163.397 68.6797 163.569 68.0558 163.729 67.4232C163.89 66.8248 164.012 66.2163 164.092 65.6018C164.171 64.9755 164.254 64.3592 164.333 63.7378C164.373 63.1374 164.383 62.5354 164.363 61.934C164.342 61.3589 164.292 60.7852 164.213 60.2153C164.175 59.7068 164.052 59.2083 163.848 58.7409C163.73 58.3416 163.524 57.9739 163.246 57.6648C163.138 57.5643 163.016 57.4799 162.884 57.4143C162.852 57.3638 162.806 57.3236 162.752 57.2987C162.698 57.2737 162.638 57.2651 162.579 57.274C162.539 57.2807 162.498 57.2764 162.46 57.2614C162.401 57.2449 162.338 57.2427 162.277 57.2552C162.131 57.2757 161.989 57.3179 161.855 57.3804" fill="#11361F"/>
<path d="M203.642 59.2759C203.742 59.3677 203.81 59.4885 203.837 59.6212C203.864 59.7539 203.848 59.8917 203.792 60.015C203.699 60.2084 203.615 60.4066 203.542 60.6088L203.241 61.2088C203.184 61.3658 203.117 61.519 203.04 61.6673C202.939 61.8678 202.829 62.077 202.713 62.2937C202.596 62.5104 202.477 62.7246 202.359 62.92C202.27 63.0665 202.194 63.2213 202.134 63.3823C201.969 63.7726 201.785 64.1543 201.581 64.526C201.381 64.8917 201.178 65.2776 200.979 65.6759C200.745 66.0818 200.527 66.4651 200.325 66.8334C200.123 67.2017 199.904 67.5675 199.672 67.9383C199.544 68.1162 199.426 68.3015 199.319 68.4932C199.213 68.6857 199.095 68.8718 198.967 69.0507C198.833 69.2394 198.708 69.4265 198.591 69.6119C198.474 69.7973 198.349 69.9839 198.215 70.1718C197.947 70.5476 197.687 70.9134 197.436 71.2692C197.186 71.6249 196.909 71.9932 196.606 72.374C196.004 73.1378 195.33 73.8429 194.595 74.4798C194.395 74.6777 194.193 74.8556 193.994 75.021C193.795 75.1863 193.573 75.3504 193.34 75.5221C193.105 75.6573 192.853 75.8014 192.588 75.9567C192.315 76.1146 192.029 76.2483 191.733 76.3563C191.566 76.4115 191.398 76.4703 191.232 76.5267C191.069 76.5839 190.901 76.6258 190.731 76.652L190.178 76.7284C190.078 76.742 189.977 76.7475 189.876 76.7447C189.776 76.7447 189.657 76.7321 189.524 76.7184C189.417 76.6976 189.307 76.6872 189.197 76.6871C189.083 76.6875 188.97 76.66 188.869 76.6069C188.736 76.5568 188.61 76.5154 188.493 76.4816C188.377 76.4478 188.252 76.4052 188.118 76.3563C187.906 76.2132 187.705 76.055 187.516 75.8828C187.408 75.822 187.314 75.7397 187.239 75.6411C187.157 75.5358 187.08 75.4356 187.014 75.3442C186.779 75.0086 186.593 74.6418 186.46 74.2543C186.401 74.0863 186.35 73.9153 186.309 73.742C186.277 73.5942 186.242 73.4388 186.208 73.2735C186.146 72.9772 186.113 72.6755 186.11 72.3728V71.5623C186.143 71.3068 186.16 71.0495 186.161 70.7919C186.161 70.5526 186.177 70.3136 186.21 70.0766C186.244 69.8348 186.279 69.6006 186.31 69.3751C186.341 69.1496 186.378 68.9354 186.411 68.7275C186.477 68.2456 186.553 67.7951 186.637 67.3758C186.72 66.9587 186.812 66.539 186.914 66.1231L187.516 63.604C187.717 62.7972 187.925 61.9893 188.143 61.18C188.36 60.3708 188.569 59.5636 188.769 58.7586C188.869 58.3727 188.962 57.9882 189.046 57.6036C189.13 57.219 189.222 56.8345 189.324 56.4474C189.425 56.0603 189.517 55.6857 189.599 55.3199C189.682 54.9542 189.759 54.5959 189.825 54.2476C189.859 54.0748 189.909 53.8468 189.977 53.5662C189.931 53.5674 189.887 53.5827 189.851 53.61C189.831 53.6302 189.804 53.6426 189.775 53.6451C189.615 53.7165 189.464 53.8055 189.324 53.9107C189.165 53.9956 189.013 54.0936 188.87 54.2038C188.729 54.3132 188.578 54.41 188.419 54.4932C188.116 54.7049 187.817 54.9341 187.514 55.1796C187.205 55.4305 186.919 55.708 186.659 56.0089C186.516 56.1374 186.381 56.2751 186.256 56.4211C186.122 56.5739 185.987 56.728 185.854 56.8821C185.721 57.0361 185.593 57.1877 185.478 57.3393C185.363 57.4909 185.236 57.6449 185.102 57.7978C184.631 58.4391 184.173 59.1018 183.724 59.792C183.276 60.4823 182.826 61.1775 182.392 61.8803C182.194 62.2602 181.977 62.6294 181.74 62.9864L181.437 63.5363C181.337 63.7205 181.237 63.9021 181.135 64.085C180.968 64.4483 180.784 64.8041 180.583 65.1523C180.376 65.5132 180.191 65.8863 180.03 66.2697C179.66 67.0322 179.299 67.793 178.948 68.5521C178.596 69.3112 178.27 70.0674 177.968 70.8207C177.801 71.2174 177.651 71.6024 177.516 71.9757C177.382 72.3515 177.23 72.7361 177.065 73.1282C176.996 73.3098 176.93 73.504 176.862 73.7157C176.795 73.9274 176.729 74.1241 176.662 74.3007C176.591 74.4911 176.532 74.6856 176.485 74.8832C176.439 75.0811 176.381 75.2761 176.311 75.4669C176.304 75.4669 176.297 75.4683 176.29 75.4713C176.283 75.4743 176.277 75.4787 176.273 75.4842C176.268 75.4896 176.264 75.4961 176.262 75.5031C176.26 75.51 176.26 75.5174 176.261 75.5246L176.161 76.0444C176.003 77.026 175.494 77.9166 174.728 78.5498C174.002 79.1946 173.057 79.5351 172.087 79.5006C171.646 79.501 171.212 79.3962 170.819 79.1949C170.427 78.9936 170.089 78.7016 169.832 78.3431C169.565 77.9689 169.378 77.5435 169.282 77.0937C169.187 76.6438 169.186 76.1792 169.278 75.7287C169.274 75.6233 169.291 75.5181 169.328 75.4193L175.968 50.1827C176.125 49.5307 176.519 48.9605 177.074 48.583C177.593 48.1968 178.24 48.0246 178.883 48.102C179.164 48.1346 179.435 48.227 179.677 48.3728C179.92 48.5186 180.129 48.7146 180.29 48.9475C180.456 49.1849 180.573 49.4533 180.633 49.7367C180.694 50.0201 180.696 50.3128 180.642 50.5973L178.028 65.4279C178.161 65.0713 178.295 64.7139 178.429 64.3556C178.565 63.9998 178.697 63.6265 178.831 63.2282C178.9 63.0515 178.975 62.8524 179.059 62.6394C179.143 62.4264 179.216 62.2285 179.285 62.0506C179.352 61.8377 179.436 61.6304 179.535 61.4306C179.635 61.2314 179.719 61.0244 179.786 60.8117C180.12 60.0213 180.466 59.2296 180.816 58.4316C181.165 57.6337 181.545 56.8407 181.943 56.0402C182.02 55.8422 182.112 55.6508 182.22 55.4678C182.336 55.2661 182.444 55.0556 182.547 54.8414L183.149 53.6413C183.384 53.2355 183.608 52.8246 183.827 52.4049C184.046 51.9853 184.287 51.5544 184.556 51.1097C184.69 50.923 184.824 50.7188 184.958 50.4958C185.092 50.2729 185.228 50.0524 185.36 49.8319C185.527 49.639 185.694 49.4302 185.861 49.2056C186.029 48.9801 186.196 48.7709 186.363 48.5792C186.743 48.1471 187.146 47.7353 187.57 47.3453C188 46.9157 188.487 46.5465 189.017 46.248C189.285 46.0776 189.562 45.911 189.849 45.7532C190.13 45.5958 190.423 45.4613 190.726 45.3511C190.894 45.2934 191.054 45.2371 191.203 45.1832L191.681 45.0153C191.853 44.9962 192.022 44.9541 192.183 44.8901L192.433 44.8562L192.532 44.8425L192.684 44.8212L192.783 44.8074L192.883 44.7936L193.086 44.7661C193.219 44.7438 193.354 44.7416 193.488 44.7598C193.646 44.7376 193.806 44.7329 193.965 44.746C194.115 44.7585 194.275 44.7698 194.442 44.7798C194.789 44.8388 195.127 44.9455 195.445 45.0968C195.782 45.233 196.102 45.4097 196.398 45.6229C196.552 45.7233 196.696 45.8396 196.826 45.9699C196.944 46.0889 197.068 46.2054 197.202 46.3231C197.302 46.4785 197.395 46.6175 197.48 46.7415C197.568 46.8763 197.643 47.0184 197.706 47.1662C197.862 47.3912 197.981 47.6405 198.056 47.904C198.124 48.1546 198.192 48.3863 198.258 48.6118C198.351 49.0045 198.402 49.406 198.41 49.8094C198.476 50.1443 198.476 50.4891 198.41 50.8241C198.413 51.393 198.362 51.9609 198.258 52.5202C198.193 52.7611 198.142 53.0058 198.108 53.253C198.074 53.4995 198.023 53.7435 197.957 53.9833C197.89 54.2339 197.822 54.4594 197.757 54.6711C197.692 54.8828 197.622 55.1133 197.554 55.36L197.152 56.634C197.018 57.0599 196.866 57.4696 196.701 57.8642C196.532 58.2938 196.373 58.706 196.221 59.0981C196.07 59.4901 195.912 59.886 195.744 60.2806C195.408 61.1086 195.081 61.8966 194.763 62.6519C194.445 63.4073 194.137 64.1552 193.834 64.9068L192.929 67.1616C192.66 67.8414 192.392 68.5721 192.124 69.3538C191.963 69.7726 191.87 70.2139 191.847 70.6616C191.864 70.8959 191.965 70.9911 192.149 70.9485C192.428 70.8618 192.691 70.7316 192.929 70.5627C193.262 70.3459 193.632 70.1267 194.033 69.9C194.194 69.782 194.345 69.6509 194.485 69.5079C194.619 69.3714 194.753 69.2423 194.888 69.1233L195.794 68.2364C196.363 67.6518 196.915 67.0501 197.451 66.4313C197.988 65.8125 198.524 65.1794 199.062 64.5322C199.329 64.2253 199.588 63.9059 199.839 63.5601C200.09 63.2144 200.351 62.8799 200.619 62.5404C200.86 62.2294 201.078 61.9016 201.272 61.5596C201.575 61.0585 201.792 60.7178 201.926 60.5299L202.329 60.0175L202.68 59.5165L202.731 59.5089C202.762 59.4216 202.814 59.3431 202.882 59.2807C202.951 59.2183 203.033 59.1738 203.123 59.1514C203.213 59.1289 203.307 59.1291 203.397 59.1519C203.486 59.1747 203.569 59.2195 203.637 59.2822" fill="#11361F"/>
<path d="M230.635 59.6229L229.729 60.8656L228.824 62.1082C228.187 62.9066 227.534 63.7 226.863 64.4883C226.193 65.2767 225.473 66.0454 224.703 66.7945C224.328 67.1841 223.952 67.5574 223.576 67.9157C223.2 68.274 222.781 68.636 222.345 69.0018C221.531 69.7287 220.674 70.406 219.779 71.0299C218.876 71.7294 217.917 72.3549 216.913 72.9001L216.11 73.3185C215.848 73.4535 215.58 73.5751 215.306 73.6831C215.037 73.7875 214.76 73.8848 214.475 73.9749C214.19 74.0651 213.898 74.1666 213.598 74.2743C213.323 74.3813 213.037 74.4553 212.744 74.4948C212.443 74.5387 212.14 74.5787 211.838 74.6201C211.206 74.7157 210.565 74.7372 209.928 74.684C209.276 74.6795 208.63 74.5629 208.018 74.3395C207.692 74.2544 207.373 74.146 207.063 74.015C206.762 73.8898 206.459 73.7432 206.157 73.5829C205.585 73.255 205.06 72.8494 204.599 72.3778C204.366 72.141 204.148 71.89 203.946 71.6262C203.744 71.3668 203.561 71.1138 203.392 70.8658C203.22 70.612 203.07 70.3447 202.942 70.0666C202.808 69.785 202.69 69.4964 202.587 69.2022C202.389 68.6272 202.238 68.0369 202.136 67.4372C202.003 66.8816 201.927 66.3135 201.911 65.7423C201.894 65.1711 201.902 64.5944 201.935 64.0123C201.967 63.4302 202.026 62.8636 202.11 62.3124C202.194 61.7612 202.304 61.2213 202.437 60.6952C202.98 58.5707 203.773 56.5181 204.801 54.5808C205.034 54.0735 205.284 53.5925 205.552 53.1315C205.82 52.6705 206.107 52.217 206.408 51.7685C206.709 51.3201 207.011 50.8829 207.314 50.4507C207.625 50.0059 207.96 49.5777 208.316 49.168C208.488 48.9372 208.673 48.7168 208.871 48.5078C209.071 48.2936 209.255 48.0907 209.423 47.8977C209.625 47.6998 209.825 47.5119 210.026 47.3315C210.226 47.1511 210.429 46.9632 210.628 46.7653C211.064 46.3657 211.505 45.9924 211.961 45.6379C212.42 45.283 212.898 44.9543 213.394 44.6533C213.829 44.3894 214.349 44.0971 214.953 43.7764C215.219 43.6724 215.496 43.5647 215.782 43.4582C216.067 43.3517 216.361 43.2415 216.659 43.1325C216.962 43.0245 217.273 42.9408 217.589 42.882C217.913 42.8204 218.242 42.7998 218.57 42.8206C218.905 42.8093 219.249 42.8118 219.6 42.8294C219.967 42.8532 220.33 42.9218 220.681 43.0336C221.401 43.24 222.069 43.5975 222.64 44.082C223.237 44.5434 223.719 45.1363 224.048 45.8145C224.364 46.4263 224.601 47.0758 224.752 47.7474C224.851 48.411 224.901 49.0809 224.904 49.7517C224.904 50.3878 224.854 51.0229 224.752 51.6508C224.685 51.9656 224.609 52.2725 224.526 52.5715C224.442 52.8705 224.367 53.1603 224.3 53.4409C224.099 54.0438 223.873 54.6334 223.621 55.2097C223.361 55.8032 223.051 56.3732 222.693 56.9133C222.367 57.4959 221.979 58.0418 221.537 58.5418C221.118 59.1269 220.611 59.6429 220.033 60.0714C219.764 60.3106 219.464 60.5574 219.128 60.8054C219.039 60.8404 218.954 60.8867 218.877 60.9432L218.726 61.0134C218.702 61.0473 218.666 61.071 218.625 61.0798C218.495 61.1568 218.361 61.2266 218.223 61.289C217.71 61.5657 217.172 61.7926 216.616 61.9667C215.505 62.3889 214.335 62.6374 213.149 62.7033L212.244 62.6782C212.101 62.6708 211.958 62.6561 211.816 62.6344C211.672 62.613 211.529 62.5825 211.389 62.5429C210.83 62.4385 210.289 62.2577 209.78 62.0055C209.65 61.9587 209.524 61.9 209.404 61.8301C209.287 61.7639 209.177 61.6853 209.076 61.5959C208.965 61.5425 208.863 61.471 208.774 61.3842C208.648 61.314 208.53 61.23 208.422 61.1336L207.921 60.5937C207.753 60.4121 207.586 60.2179 207.42 60.005C207.405 59.9938 207.393 59.9795 207.384 59.963C207.376 59.9466 207.371 59.9284 207.37 59.9098C207.369 59.8916 207.364 59.8739 207.355 59.8579C207.347 59.8419 207.335 59.8279 207.32 59.8171V60.6326C207.318 61.0442 207.344 61.4555 207.395 61.864C207.446 62.2473 207.504 62.6156 207.572 62.9839C207.636 63.3413 207.728 63.6931 207.847 64.0361C207.956 64.3551 208.082 64.6683 208.223 64.9744C208.423 65.4986 208.731 65.9746 209.128 66.3711C209.268 66.5591 209.437 66.7236 209.629 66.8584C209.807 66.9785 209.991 67.0889 210.181 67.1891C210.357 67.3058 210.553 67.3906 210.759 67.4397C210.999 67.4957 211.242 67.5375 211.488 67.5649C211.768 67.6303 212.055 67.6668 212.343 67.6739C212.644 67.6831 212.978 67.6961 213.345 67.7128C213.513 67.689 213.689 67.6727 213.873 67.6639C214.057 67.6551 214.232 67.6376 214.4 67.615C214.775 67.6302 215.149 67.578 215.505 67.461C216.326 67.3111 217.133 67.097 217.92 66.8208C218.32 66.663 218.722 66.4889 219.125 66.2985C219.527 66.1056 219.93 65.8989 220.332 65.6721C220.734 65.4454 221.127 65.2049 221.514 64.9493C221.901 64.6938 222.277 64.437 222.642 64.1814C223.412 63.6361 224.174 63.0565 224.929 62.4427C225.681 61.8301 226.413 61.19 227.115 60.5136C227.283 60.3557 227.461 60.1966 227.644 60.0338C227.832 59.8704 228.008 59.6933 228.171 59.5039C228.338 59.3461 228.515 59.1707 228.698 58.9753C228.881 58.7798 229.058 58.5882 229.226 58.394C229.394 58.1998 229.645 57.9393 229.977 57.6048C230.309 57.2704 230.562 57.0073 230.729 56.8144C230.886 56.6294 231.053 56.4538 231.23 56.2882L231.432 56.0064L231.682 55.7183C231.735 55.632 231.806 55.5577 231.889 55.5003C231.972 55.4428 232.067 55.4035 232.166 55.3847C232.266 55.3659 232.368 55.3682 232.466 55.3913C232.565 55.4145 232.658 55.458 232.738 55.5191C232.809 55.574 232.868 55.6425 232.911 55.7206C232.954 55.7988 232.982 55.8849 232.991 55.9738C233 56.0627 232.992 56.1526 232.966 56.238C232.939 56.3235 232.896 56.4028 232.838 56.4711L232.738 56.6352L232.638 56.8006L232.387 57.1413C232.319 57.2528 232.253 57.3543 232.186 57.4482C232.118 57.5422 232.051 57.6449 231.985 57.7539C231.85 57.9756 231.632 58.2838 231.331 58.6834C231.031 59.083 230.794 59.3924 230.627 59.6179M208.91 53.0475C208.709 53.4502 208.533 53.8648 208.382 54.289C208.232 54.7157 208.09 55.1416 207.956 55.5667C207.706 56.3485 207.538 57.1541 207.455 57.9706L207.505 58.0157C207.908 58.2295 208.293 58.4128 208.662 58.5656C209.027 58.7299 209.418 58.83 209.818 58.8613C209.857 58.8791 209.9 58.8901 209.943 58.8938C209.986 58.8978 210.029 58.9088 210.068 58.9264C210.118 58.9155 210.169 58.9155 210.219 58.9264C210.268 58.9387 210.32 58.9387 210.37 58.9264C210.461 58.9464 210.555 58.9502 210.647 58.9377C210.739 58.9263 210.833 58.9305 210.924 58.9502C211.653 58.9199 212.369 58.7498 213.033 58.4491C213.369 58.3026 213.695 58.1385 214.016 57.9581C214.336 57.7777 214.661 57.5823 214.995 57.3643C215.162 57.2407 215.322 57.1154 215.474 56.9885C215.624 56.8632 215.783 56.738 215.952 56.6127C215.981 56.5787 216.015 56.5488 216.052 56.5237C216.089 56.4981 216.122 56.4683 216.151 56.4348L216.203 56.3759L216.253 56.3183C216.306 56.2901 216.35 56.2465 216.378 56.193C216.414 56.1327 216.456 56.0761 216.503 56.0239C216.587 55.9264 216.664 55.8226 216.731 55.7133C216.813 55.588 216.889 55.4627 216.957 55.3525C217.164 55.0754 217.317 54.7617 217.408 54.428C217.578 54.1295 217.713 53.8127 217.811 53.4835C217.912 53.1465 217.996 52.8044 218.062 52.4588C218.094 52.2859 218.129 52.1193 218.163 51.9577C218.193 51.64 218.226 51.3226 218.262 51.0057V50.5484C218.294 50.4058 218.302 50.259 218.287 50.1137C218.269 49.9893 218.261 49.8637 218.262 49.7379C218.263 49.6197 218.255 49.5016 218.237 49.3847C218.222 49.302 218.214 49.2182 218.212 49.1341C218.181 49.0463 218.165 48.9541 218.163 48.8611C218.164 48.7845 218.147 48.7088 218.112 48.6406C218.098 48.5013 218.045 48.3686 217.96 48.2573C217.889 48.1935 217.822 48.1257 217.759 48.0543C217.674 47.9698 217.571 47.9063 217.458 47.8689C217.193 47.7213 216.904 47.6236 216.604 47.5808C216.431 47.537 216.254 47.5188 216.076 47.5269C215.901 47.5372 215.724 47.5372 215.549 47.5269C215.174 47.5117 214.799 47.5639 214.443 47.681C213.64 47.9061 212.889 48.2866 212.233 48.8009C211.864 49.0631 211.526 49.3656 211.225 49.7029C210.925 50.016 210.64 50.343 210.371 50.685C209.81 51.4135 209.321 52.1956 208.913 53.02" fill="#11361F"/>
<path d="M54.2856 86.1235L53.1958 86.919C53.0242 86.592 52.8099 86.4555 52.5569 86.5018C52.4356 86.5243 52.3258 86.588 52.2462 86.6822C52.1639 86.7755 52.1193 86.8961 52.121 87.0205C52.121 87.2434 52.3715 87.4176 52.8839 87.5391C53.391 87.6296 53.8728 87.8278 54.2969 88.1203C54.4254 88.2464 54.5247 88.3991 54.5877 88.5677C54.6507 88.7363 54.6758 88.9167 54.6614 89.0962C54.659 89.663 54.4408 90.2076 54.0514 90.6194C53.6774 91.0401 53.1741 91.3243 52.6208 91.4274C52.2126 91.5418 51.7763 91.4978 51.3991 91.3044C51.0219 91.1109 50.7317 90.7822 50.5864 90.3839L51.7138 89.6436C51.809 89.8147 51.9293 89.9705 52.0709 90.1058C52.1523 90.1663 52.2459 90.2082 52.3452 90.2288C52.4445 90.2493 52.5471 90.248 52.6458 90.2248C52.7391 90.2196 52.8304 90.1959 52.9145 90.1552C52.9986 90.1146 53.0739 90.0577 53.1359 89.9878C53.198 89.918 53.2456 89.8366 53.2761 89.7483C53.3066 89.6599 53.3193 89.5665 53.3135 89.4732C53.3135 89.234 53.1432 89.0435 52.7987 88.902C52.6646 88.8581 52.5318 88.8181 52.3991 88.7767C52.2663 88.7354 52.131 88.6966 51.9932 88.6515C51.6943 88.5773 51.4173 88.433 51.1852 88.2306C50.9737 87.9892 50.8665 87.6739 50.8871 87.3537C50.8831 86.856 51.0644 86.3747 51.3957 86.0033C51.7219 85.622 52.1688 85.3638 52.6621 85.2717C52.9899 85.1923 53.3354 85.2341 53.6347 85.3896C53.934 85.545 54.167 85.8035 54.2906 86.1173" fill="#11361F"/>
<path d="M55.94 82.408C55.9419 82.1659 56.0308 81.9325 56.1905 81.7504C56.3401 81.5573 56.5538 81.424 56.793 81.3746C56.8989 81.3498 57.009 81.3497 57.1148 81.3745C57.2206 81.3993 57.3193 81.4482 57.4031 81.5174C57.4863 81.5855 57.5523 81.6723 57.5958 81.7706C57.6394 81.869 57.6592 81.9762 57.6536 82.0836C57.6531 82.329 57.5642 82.5661 57.4031 82.7513C57.2549 82.9459 57.0405 83.0796 56.8006 83.1271C56.6944 83.1521 56.5839 83.1521 56.4777 83.127C56.3716 83.102 56.2727 83.0525 56.189 82.9826C56.1053 82.9128 56.0389 82.8244 55.9953 82.7244C55.9516 82.6245 55.9318 82.5157 55.9375 82.4068M57.4557 84.5364V90.3488L56.1379 90.5994V84.7857L57.4557 84.5364Z" fill="#11361F"/>
<path d="M59.4302 84.1669L60.7568 83.9164V84.4525C61.1423 83.9473 61.6952 83.5959 62.3164 83.4616C62.5836 83.3857 62.8656 83.3775 63.1368 83.4379C63.408 83.4983 63.6599 83.6252 63.8697 83.8074C64.2468 84.2827 64.4198 84.8882 64.3507 85.491V89.0524L63.0279 89.3029V86.0547C63.0699 85.6592 62.988 85.2605 62.7936 84.9135C62.6408 84.7197 62.3627 84.6609 61.9594 84.7369C61.7674 84.7619 61.5836 84.8305 61.4221 84.9373C61.2606 85.0441 61.1256 85.1863 61.0274 85.3532C60.8147 85.8486 60.7224 86.3874 60.758 86.9253V89.7288L59.4314 89.9794L59.4302 84.1669Z" fill="#11361F"/>
<path d="M70.7606 82.2865V84.0716C70.5372 83.8112 70.2615 83.6008 69.9514 83.454C69.688 83.352 69.4002 83.3306 69.1246 83.3926C68.6312 83.4849 68.1899 83.7578 67.8869 84.158C67.5631 84.5607 67.3891 85.0632 67.3946 85.5798C67.3795 85.8106 67.4142 86.0418 67.4963 86.258C67.5784 86.4741 67.7061 86.6701 67.8706 86.8325C68.0355 86.9775 68.2332 87.0802 68.4467 87.1317C68.6601 87.1832 68.8829 87.182 69.0958 87.1282C69.4005 87.0736 69.6881 86.9478 69.9351 86.7611C70.2539 86.4879 70.5323 86.1707 70.7618 85.8191V87.5904C70.2863 87.9472 69.738 88.1949 69.1559 88.3157C68.7757 88.4106 68.379 88.4194 67.995 88.3414C67.6109 88.2633 67.2492 88.1005 66.9361 87.8647C66.6407 87.6241 66.4062 87.3172 66.2517 86.969C66.0972 86.6207 66.0269 86.2409 66.0467 85.8604C66.0486 84.9878 66.3699 84.1461 66.9499 83.4941C67.5106 82.8093 68.2957 82.3451 69.1659 82.1838C69.6978 82.076 70.2489 82.1145 70.7606 82.2953" fill="#11361F"/>
<path d="M77.5392 83.9853L73.4466 84.7557C73.4481 84.953 73.4893 85.148 73.5679 85.3291C73.6464 85.5101 73.7607 85.6734 73.9039 85.8092C74.0481 85.9239 74.2169 86.0036 74.3971 86.042C74.5772 86.0805 74.7639 86.0767 74.9423 86.0309C75.2458 85.9813 75.5285 85.8451 75.7566 85.6388C76.0436 85.3355 76.2861 84.9931 76.4769 84.6217L77.5918 85.0451C77.4358 85.3502 77.2534 85.6411 77.0469 85.9144C76.8663 86.1504 76.6595 86.3652 76.4305 86.5546C76.2145 86.7309 75.9756 86.8771 75.7203 86.9892C75.455 87.105 75.1771 87.1891 74.8922 87.2398C74.5392 87.3346 74.1686 87.3433 73.8115 87.265C73.4544 87.1867 73.1213 87.0239 72.8403 86.7901C72.5686 86.519 72.3587 86.1924 72.2251 85.8326C72.0914 85.4728 72.0372 85.0883 72.0662 84.7056C72.0449 83.853 72.3095 83.0178 72.8178 82.333C73.3072 81.6875 74.0237 81.2522 74.8221 81.1154C75.1652 81.0209 75.5261 81.0118 75.8735 81.0889C76.2209 81.166 76.5442 81.3269 76.8151 81.5576C77.0772 81.8397 77.2773 82.1736 77.4025 82.5379C77.5276 82.9021 77.575 83.2885 77.5417 83.6721L77.5392 83.9853ZM76.185 83.1422C76.1628 82.9949 76.1088 82.8542 76.0268 82.7298C75.9447 82.6054 75.8366 82.5004 75.7099 82.422C75.5832 82.3436 75.441 82.2936 75.2931 82.2757C75.1452 82.2577 74.9952 82.2721 74.8534 82.318C74.6956 82.3466 74.5433 82.4003 74.4024 82.4771C74.2606 82.5529 74.131 82.6496 74.0179 82.7639C73.9013 82.88 73.8018 83.012 73.7222 83.156C73.6383 83.3081 73.5751 83.4707 73.5343 83.6395L76.185 83.1422Z" fill="#11361F"/>
<path d="M81.7006 77.8821L80.1348 78.1752L80.8864 76.7346L83.0686 76.3237V85.536L81.7019 85.7865L81.7006 77.8821Z" fill="#11361F"/>
<path d="M88.8571 84.7645L87.855 84.1945L90.0171 80.7859C89.9006 80.8248 89.8004 80.8561 89.719 80.8786C89.6531 80.8989 89.5862 80.9156 89.5185 80.9287C89.185 81.0026 88.8386 80.9957 88.5082 80.9085C88.1779 80.8214 87.8732 80.6565 87.6195 80.4277C87.3557 80.192 87.1478 79.9005 87.0108 79.5744C86.8739 79.2482 86.8113 78.8957 86.8278 78.5424C86.8554 77.6858 87.167 76.8628 87.7135 76.2027C88.26 75.5426 89.0104 75.0829 89.8467 74.8958C90.2193 74.8112 90.6062 74.8114 90.9787 74.8964C91.3512 74.9814 91.6998 75.149 91.9989 75.3868C92.2944 75.6116 92.5318 75.9039 92.6909 76.2394C92.85 76.5749 92.9263 76.9437 92.9133 77.3147C92.8524 78.211 92.5445 79.073 92.0239 79.8051L88.8571 84.7645ZM88.1531 78.1904C88.1417 78.4092 88.1809 78.6278 88.2678 78.829C88.3547 79.0302 88.487 79.2086 88.6542 79.3504C88.821 79.488 89.0173 79.5853 89.2278 79.6346C89.4384 79.6839 89.6575 79.684 89.868 79.6347C90.3423 79.5306 90.7682 79.271 91.0782 78.8972C91.3882 78.5235 91.5646 78.0569 91.5792 77.5715C91.5898 77.3552 91.5498 77.1393 91.4623 76.9411C91.3749 76.7429 91.2424 76.5678 91.0754 76.4298C90.9084 76.2917 90.7116 76.1946 90.5005 76.1459C90.2893 76.0973 90.0698 76.0986 89.8593 76.1497C89.3905 76.2558 88.9696 76.513 88.6613 76.8817C88.3531 77.2504 88.1745 77.7102 88.1531 78.1904Z" fill="#11361F"/>
<path d="M96.5684 83.316L95.5663 82.746L97.7359 79.3387C97.6182 79.3763 97.518 79.4089 97.4365 79.4302C97.3707 79.4504 97.3037 79.4671 97.2361 79.4803C96.903 79.5551 96.5569 79.5492 96.2266 79.4631C95.8962 79.3771 95.5912 79.2133 95.337 78.9855C95.0717 78.7494 94.8624 78.4571 94.7244 78.1298C94.5863 77.8026 94.523 77.4487 94.5391 77.0939C94.5668 76.2372 94.8786 75.414 95.4253 74.7539C95.9721 74.0938 96.7228 73.6341 97.5593 73.4473C97.9305 73.3633 98.3158 73.3633 98.687 73.4471C99.0583 73.531 99.4061 73.6967 99.7051 73.9321C100.001 74.1568 100.238 74.4492 100.397 74.7847C100.556 75.1202 100.633 75.4889 100.62 75.86C100.559 76.7564 100.251 77.6185 99.7302 78.3504L96.5684 83.316ZM95.8644 76.7419C95.8498 76.9598 95.8867 77.1781 95.9719 77.3791C96.0572 77.5802 96.1885 77.7584 96.3552 77.8994C96.5219 78.0404 96.7195 78.1403 96.9319 78.191C97.1443 78.2417 97.3656 78.2418 97.5781 78.1913C98.0523 78.0863 98.4781 77.8264 98.7881 77.4526C99.0982 77.0787 99.275 76.6123 99.2905 76.1268C99.3008 75.9107 99.2607 75.6951 99.1732 75.4972C99.0857 75.2993 98.9534 75.1244 98.7866 74.9866C98.6198 74.8487 98.4231 74.7516 98.2123 74.703C98.0014 74.6543 97.7822 74.6554 97.5718 74.7063C97.1032 74.8117 96.6822 75.0683 96.3739 75.4367C96.0655 75.805 95.887 76.2645 95.8657 76.7444" fill="#11361F"/>
<path d="M103.671 76.8736C103.35 76.7107 103.083 76.4565 102.905 76.1428C102.726 75.8291 102.645 75.4698 102.669 75.1098C102.666 74.3692 102.933 73.6529 103.421 73.0955C103.903 72.5155 104.573 72.1235 105.315 71.9881C105.638 71.9074 105.975 71.9015 106.301 71.9707C106.626 72.04 106.932 72.1826 107.194 72.3877C107.446 72.5984 107.646 72.8653 107.777 73.1671C107.907 73.4688 107.965 73.797 107.946 74.1252C107.941 74.5301 107.85 74.9293 107.679 75.2964C107.508 75.6635 107.261 75.9901 106.955 76.2548C107.316 76.3816 107.619 76.6336 107.81 76.9651C108.03 77.3362 108.14 77.7618 108.127 78.1927C108.137 78.9819 107.858 79.7475 107.342 80.3448C106.83 80.9575 106.118 81.3685 105.331 81.5048C104.978 81.5945 104.609 81.6052 104.251 81.5362C103.893 81.4671 103.555 81.3199 103.261 81.1052C102.987 80.889 102.77 80.6102 102.627 80.2923C102.484 79.9744 102.42 79.6267 102.44 79.2788C102.421 78.8065 102.524 78.3374 102.739 77.9164C102.954 77.4954 103.273 77.1368 103.666 76.8749M103.784 78.9769C103.776 79.1678 103.811 79.3582 103.886 79.534C103.961 79.7098 104.074 79.8666 104.218 79.9928C104.363 80.1148 104.536 80.201 104.721 80.2445C104.906 80.288 105.099 80.2876 105.284 80.2433C105.701 80.1516 106.075 79.9232 106.348 79.5943C106.62 79.2655 106.775 78.855 106.787 78.4282C106.796 78.2386 106.762 78.0495 106.686 77.8756C106.609 77.7018 106.494 77.548 106.348 77.4265C106.202 77.305 106.03 77.2191 105.845 77.1755C105.661 77.1319 105.468 77.1319 105.284 77.1755C104.865 77.259 104.489 77.4885 104.223 77.8231C103.943 78.1413 103.787 78.5495 103.784 78.9731M103.953 74.8618C103.944 75.0343 103.975 75.2065 104.043 75.3653C104.111 75.5241 104.214 75.6651 104.345 75.7775C104.477 75.8867 104.633 75.9639 104.799 76.0031C104.966 76.0422 105.14 76.0421 105.306 76.003C105.68 75.9195 106.016 75.7144 106.261 75.4198C106.506 75.1251 106.647 74.7575 106.66 74.3745C106.668 74.204 106.636 74.0341 106.567 73.878C106.498 73.7219 106.394 73.5839 106.263 73.4747C106.132 73.3655 105.977 73.2882 105.811 73.2487C105.645 73.2092 105.472 73.2086 105.306 73.2471C104.928 73.3216 104.588 73.5297 104.35 73.8333C104.099 74.118 103.958 74.4833 103.952 74.863" fill="#11361F"/>
<path d="M113.966 64.487L46.1768 77.2334L46.317 77.9795L114.106 65.2331L113.966 64.487Z" fill="#11361F"/>
<path d="M113.966 85.4704L46.1768 98.2168L46.317 98.9629L114.106 86.2165L113.966 85.4704Z" fill="#11361F"/>
</g>
<defs>
<clipPath id="clip0_2038_78">
<rect width="233" height="98.9624" fill="white"/>
</clipPath>
</defs>
</svg>
